<svg width="187" height="187" viewBox="0 0 187 187" fill="none" xmlns="http://www.w3.org/2000/svg">
<g clip-path="url(#clip0_32_2750)">
<path d="M5.22727 113H0V118.227H5.22727V113Z" fill="#0F8FF5"/>
<path d="M11.5 113H6.27271V118.227H11.5V113Z" fill="#00A3FF"/>
<path d="M17.7727 113H12.5454V118.227H17.7727V113Z" fill="#0F8FF5"/>
<path d="M24.0456 113H18.8184V118.227H24.0456V113Z" fill="#0E91F6"/>
<path d="M30.3181 113H25.0908V118.227H30.3181V113Z" fill="#069AFB"/>
<path d="M36.5906 113H31.3633V118.227H36.5906V113Z" fill="#2176E9"/>
<path d="M42.864 113H37.6367V118.227H42.864V113Z" fill="#00A2FF"/>
<path d="M49.1365 113H43.9092V118.227H49.1365V113Z" fill="#1685F0"/>
<path d="M55.4089 113H50.1816V118.227H55.4089V113Z" fill="#059DFC"/>
<path d="M61.6814 113H56.4541V118.227H61.6814V113Z" fill="#1F79EB"/>
<path d="M67.9548 113H62.7275V118.227H67.9548V113Z" fill="#0997F9"/>
<path d="M74.2273 113H69V118.227H74.2273V113Z" fill="#0E90F6"/>
<path d="M80.4997 113H75.2725V118.227H80.4997V113Z" fill="#059CFC"/>
<path d="M86.7722 113H81.5449V118.227H86.7722V113Z" fill="#1784F0"/>
<path d="M93.0456 113H87.8184V118.227H93.0456V113Z" fill="#1D7CEC"/>
<path d="M99.3181 113H94.0908V118.227H99.3181V113Z" fill="#0D91F6"/>
<path d="M105.591 113H100.363V118.227H105.591V113Z" fill="#1F7AEB"/>
<path d="M111.864 113H106.637V118.227H111.864V113Z" fill="#1883F0"/>
<path d="M118.136 113H112.909V118.227H118.136V113Z" fill="#1882EF"/>
<path d="M124.409 113H119.182V118.227H124.409V113Z" fill="#118CF4"/>
<path d="M130.681 113H125.454V118.227H130.681V113Z" fill="#0A96F9"/>
<path d="M136.955 113H131.728V118.227H136.955V113Z" fill="#0E90F6"/>
<path d="M143.227 113H138V118.227H143.227V113Z" fill="#0B95F8"/>
<path d="M149.5 113H144.272V118.227H149.5V113Z" fill="#2079EA"/>
<path d="M155.772 113H150.545V118.227H155.772V113Z" fill="#2078EA"/>
<path d="M162.046 113H156.818V118.227H162.046V113Z" fill="#1C7EED"/>
<path d="M168.318 113H163.091V118.227H168.318V113Z" fill="#1784F0"/>
<path d="M174.591 113H169.363V118.227H174.591V113Z" fill="#0E91F6"/>
<path d="M180.864 113H175.637V118.227H180.864V113Z" fill="#0F8FF5"/>
<path d="M187.136 113H181.909V118.227H187.136V113Z" fill="#0A95F8"/>
<path d="M5.22727 119.273H0V124.5H5.22727V119.273Z" fill="#059CFC"/>
<path d="M11.5 119.273H6.27271V124.5H11.5V119.273Z" fill="#1B7EED"/>
<path d="M17.7727 119.273H12.5454V124.5H17.7727V119.273Z" fill="#1D7CEC"/>
<path d="M24.0456 119.273H18.8184V124.5H24.0456V119.273Z" fill="#2571E7"/>
<path d="M30.3181 119.273H25.0908V124.5H30.3181V119.273Z" fill="#049EFD"/>
<path d="M36.5906 119.273H31.3633V124.5H36.5906V119.273Z" fill="#2078EA"/>
<path d="M42.864 119.273H37.6367V124.5H42.864V119.273Z" fill="#1883F0"/>
<path d="M49.1365 119.273H43.9092V124.5H49.1365V119.273Z" fill="#2473E8"/>
<path d="M55.4089 119.273H50.1816V124.5H55.4089V119.273Z" fill="#049EFD"/>
<path d="M61.6814 119.273H56.4541V124.5H61.6814V119.273Z" fill="#0F8FF5"/>
<path d="M67.9548 119.273H62.7275V124.5H67.9548V119.273Z" fill="#039EFD"/>
<path d="M74.2273 119.273H69V124.5H74.2273V119.273Z" fill="#0E90F6"/>
<path d="M80.4997 119.273H75.2725V124.5H80.4997V119.273Z" fill="#2275E9"/>
<path d="M86.7722 119.273H81.5449V124.5H86.7722V119.273Z" fill="#138AF3"/>
<path d="M93.0456 119.273H87.8184V124.5H93.0456V119.273Z" fill="#2375E8"/>
<path d="M99.3181 119.273H94.0908V124.5H99.3181V119.273Z" fill="#0899FA"/>
<path d="M105.591 119.273H100.363V124.5H105.591V119.273Z" fill="#02A0FE"/>
<path d="M111.864 119.273H106.637V124.5H111.864V119.273Z" fill="#1587F2"/>
<path d="M118.136 119.273H112.909V124.5H118.136V119.273Z" fill="#128BF3"/>
<path d="M124.409 119.273H119.182V124.5H124.409V119.273Z" fill="#1784F0"/>
<path d="M130.681 119.273H125.454V124.5H130.681V119.273Z" fill="#1D7CEC"/>
<path d="M136.955 119.273H131.728V124.5H136.955V119.273Z" fill="#2572E7"/>
<path d="M143.227 119.273H138V124.5H143.227V119.273Z" fill="#2275E9"/>
<path d="M149.5 119.273H144.272V124.5H149.5V119.273Z" fill="#02A0FE"/>
<path d="M155.772 119.273H150.545V124.5H155.772V119.273Z" fill="#138AF3"/>
<path d="M162.046 119.273H156.818V124.5H162.046V119.273Z" fill="#2571E7"/>
<path d="M168.318 119.273H163.091V124.5H168.318V119.273Z" fill="#1586F1"/>
<path d="M174.591 119.273H169.363V124.5H174.591V119.273Z" fill="#069AFB"/>
<path d="M180.864 119.273H175.637V124.5H180.864V119.273Z" fill="#1D7CEC"/>
<path d="M187.136 119.273H181.909V124.5H187.136V119.273Z" fill="#1E7AEB"/>
<path d="M5.22727 125.545H0V130.773H5.22727V125.545Z" fill="#01A1FE"/>
<path d="M11.5 125.545H6.27271V130.773H11.5V125.545Z" fill="#1982EF"/>
<path d="M17.7727 125.545H12.5454V130.773H17.7727V125.545Z" fill="#0899FA"/>
<path d="M24.0456 125.545H18.8184V130.773H24.0456V125.545Z" fill="#1E7BEC"/>
<path d="M30.3181 125.545H25.0908V130.773H30.3181V125.545Z" fill="#1784F0"/>
<path d="M36.5906 125.545H31.3633V130.773H36.5906V125.545Z" fill="#1D7CEC"/>
<path d="M42.864 125.545H37.6367V130.773H42.864V125.545Z" fill="#02A1FE"/>
<path d="M49.1365 125.545H43.9092V130.773H49.1365V125.545Z" fill="#0D92F7"/>
<path d="M55.4089 125.545H50.1816V130.773H55.4089V125.545Z" fill="#049EFD"/>
<path d="M61.6814 125.545H56.4541V130.773H61.6814V125.545Z" fill="#1488F2"/>
<path d="M67.9548 125.545H62.7275V130.773H67.9548V125.545Z" fill="#1982EF"/>
<path d="M74.2273 125.545H69V130.773H74.2273V125.545Z" fill="#2079EA"/>
<path d="M80.4997 125.545H75.2725V130.773H80.4997V125.545Z" fill="#2177E9"/>
<path d="M86.7722 125.545H81.5449V130.773H86.7722V125.545Z" fill="#1981EF"/>
<path d="M93.0456 125.545H87.8184V130.773H93.0456V125.545Z" fill="#079AFB"/>
<path d="M99.3181 125.545H94.0908V130.773H99.3181V125.545Z" fill="#2670E6"/>
<path d="M105.591 125.545H100.363V130.773H105.591V125.545Z" fill="#1A80EE"/>
<path d="M111.864 125.545H106.637V130.773H111.864V125.545Z" fill="#0898FA"/>
<path d="M118.136 125.545H112.909V130.773H118.136V125.545Z" fill="#128BF3"/>
<path d="M124.409 125.545H119.182V130.773H124.409V125.545Z" fill="#01A1FE"/>
<path d="M130.681 125.545H125.454V130.773H130.681V125.545Z" fill="#0D92F7"/>
<path d="M136.955 125.545H131.728V130.773H136.955V125.545Z" fill="#1C7EED"/>
<path d="M143.227 125.545H138V130.773H143.227V125.545Z" fill="#069AFB"/>
<path d="M149.5 125.545H144.272V130.773H149.5V125.545Z" fill="#1F7AEB"/>
<path d="M155.772 125.545H150.545V130.773H155.772V125.545Z" fill="#0899FA"/>
<path d="M162.046 125.545H156.818V130.773H162.046V125.545Z" fill="#1F79EB"/>
<path d="M168.318 125.545H163.091V130.773H168.318V125.545Z" fill="#108DF4"/>
<path d="M174.591 125.545H169.363V130.773H174.591V125.545Z" fill="#1883EF"/>
<path d="M180.864 125.545H175.637V130.773H180.864V125.545Z" fill="#079AFB"/>
<path d="M187.136 125.545H181.909V130.773H187.136V125.545Z" fill="#0899FA"/>
<path d="M11.5 131.818H6.27271V137.045H11.5V131.818Z" fill="#039EFD"/>
<path d="M17.7727 131.818H12.5454V137.045H17.7727V131.818Z" fill="#1D7CEC"/>
<path d="M24.0456 131.818H18.8184V137.045H24.0456V131.818Z" fill="#1883EF"/>
<path d="M30.3181 131.818H25.0908V137.045H30.3181V131.818Z" fill="#01A1FE"/>
<path d="M36.5906 131.818H31.3633V137.045H36.5906V131.818Z" fill="#1685F0"/>
<path d="M42.864 131.818H37.6367V137.045H42.864V131.818Z" fill="#059CFC"/>
<path d="M49.1365 131.818H43.9092V137.045H49.1365V131.818Z" fill="#1882EF"/>
<path d="M55.4089 131.818H50.1816V137.045H55.4089V131.818Z" fill="#0899FA"/>
<path d="M61.6814 131.818H56.4541V137.045H61.6814V131.818Z" fill="#2670E6"/>
<path d="M67.9548 131.818H62.7275V137.045H67.9548V131.818Z" fill="#02A1FE"/>
<path d="M74.2273 131.818H69V137.045H74.2273V131.818Z" fill="#059DFC"/>
<path d="M80.4997 131.818H75.2725V137.045H80.4997V131.818Z" fill="#1B7FED"/>
<path d="M86.7722 131.818H81.5449V137.045H86.7722V131.818Z" fill="#2473E8"/>
<path d="M93.0456 131.818H87.8184V137.045H93.0456V131.818Z" fill="#2276E9"/>
<path d="M99.3181 131.818H94.0908V137.045H99.3181V131.818Z" fill="#128BF3"/>
<path d="M105.591 131.818H100.363V137.045H105.591V131.818Z" fill="#049DFC"/>
<path d="M111.864 131.818H106.637V137.045H111.864V131.818Z" fill="#2472E7"/>
<path d="M118.136 131.818H112.909V137.045H118.136V131.818Z" fill="#0D92F7"/>
<path d="M124.409 131.818H119.182V137.045H124.409V131.818Z" fill="#1D7DEC"/>
<path d="M130.681 131.818H125.454V137.045H130.681V131.818Z" fill="#069BFB"/>
<path d="M136.955 131.818H131.728V137.045H136.955V131.818Z" fill="#02A0FE"/>
<path d="M143.227 131.818H138V137.045H143.227V131.818Z" fill="#0F8FF5"/>
<path d="M149.5 131.818H144.272V137.045H149.5V131.818Z" fill="#1F79EB"/>
<path d="M155.772 131.818H150.545V137.045H155.772V131.818Z" fill="#0F8FF5"/>
<path d="M162.046 131.818H156.818V137.045H162.046V131.818Z" fill="#0B95F8"/>
<path d="M168.318 131.818H163.091V137.045H168.318V131.818Z" fill="#039EFD"/>
<path d="M174.591 131.818H169.363V137.045H174.591V131.818Z" fill="#1488F2"/>
<path d="M180.864 131.818H175.637V137.045H180.864V131.818Z" fill="#1D7DEC"/>
<path d="M11.5 138.091H6.27271V143.318H11.5V138.091Z" fill="#2571E7"/>
<path d="M17.7727 138.091H12.5454V143.318H17.7727V138.091Z" fill="#1F79EB"/>
<path d="M24.0456 138.091H18.8184V143.318H24.0456V138.091Z" fill="#059CFC"/>
<path d="M30.3181 138.091H25.0908V143.318H30.3181V138.091Z" fill="#1883EF"/>
<path d="M36.5906 138.091H31.3633V143.318H36.5906V138.091Z" fill="#1883F0"/>
<path d="M42.864 138.091H37.6367V143.318H42.864V138.091Z" fill="#02A0FE"/>
<path d="M49.1365 138.091H43.9092V143.318H49.1365V138.091Z" fill="#1882EF"/>
<path d="M55.4089 138.091H50.1816V143.318H55.4089V138.091Z" fill="#2176E9"/>
<path d="M61.6814 138.091H56.4541V143.318H61.6814V138.091Z" fill="#2374E8"/>
<path d="M67.9548 138.091H62.7275V143.318H67.9548V138.091Z" fill="#0C93F7"/>
<path d="M74.2273 138.091H69V143.318H74.2273V138.091Z" fill="#2374E8"/>
<path d="M80.4997 138.091H75.2725V143.318H80.4997V138.091Z" fill="#0997F9"/>
<path d="M86.7722 138.091H81.5449V143.318H86.7722V138.091Z" fill="#059CFC"/>
<path d="M93.0456 138.091H87.8184V143.318H93.0456V138.091Z" fill="#138AF3"/>
<path d="M99.3181 138.091H94.0908V143.318H99.3181V138.091Z" fill="#1F79EB"/>
<path d="M105.591 138.091H100.363V143.318H105.591V138.091Z" fill="#1981EF"/>
<path d="M111.864 138.091H106.637V143.318H111.864V138.091Z" fill="#0C93F7"/>
<path d="M118.136 138.091H112.909V143.318H118.136V138.091Z" fill="#0F8FF5"/>
<path d="M124.409 138.091H119.182V143.318H124.409V138.091Z" fill="#1B7FEE"/>
<path d="M130.681 138.091H125.454V143.318H130.681V138.091Z" fill="#049DFC"/>
<path d="M136.955 138.091H131.728V143.318H136.955V138.091Z" fill="#2473E7"/>
<path d="M143.227 138.091H138V143.318H143.227V138.091Z" fill="#118CF4"/>
<path d="M149.5 138.091H144.272V143.318H149.5V138.091Z" fill="#0799FA"/>
<path d="M155.772 138.091H150.545V143.318H155.772V138.091Z" fill="#1784F0"/>
<path d="M162.046 138.091H156.818V143.318H162.046V138.091Z" fill="#049EFD"/>
<path d="M168.318 138.091H163.091V143.318H168.318V138.091Z" fill="#0898FA"/>
<path d="M174.591 138.091H169.363V143.318H174.591V138.091Z" fill="#069BFB"/>
<path d="M180.864 138.091H175.637V143.318H180.864V138.091Z" fill="#0997F9"/>
<path d="M17.7727 144.364H12.5454V149.591H17.7727V144.364Z" fill="#0D92F7"/>
<path d="M24.0456 144.364H18.8184V149.591H24.0456V144.364Z" fill="#1981EE"/>
<path d="M30.3181 144.364H25.0908V149.591H30.3181V144.364Z" fill="#0E90F6"/>
<path d="M36.5906 144.364H31.3633V149.591H36.5906V144.364Z" fill="#059CFC"/>
<path d="M42.864 144.364H37.6367V149.591H42.864V144.364Z" fill="#1686F1"/>
<path d="M49.1365 144.364H43.9092V149.591H49.1365V144.364Z" fill="#2671E6"/>
<path d="M55.4089 144.364H50.1816V149.591H55.4089V144.364Z" fill="#1587F2"/>
<path d="M61.6814 144.364H56.4541V149.591H61.6814V144.364Z" fill="#079AFB"/>
<path d="M67.9548 144.364H62.7275V149.591H67.9548V144.364Z" fill="#079AFB"/>
<path d="M74.2273 144.364H69V149.591H74.2273V144.364Z" fill="#1A80EE"/>
<path d="M80.4997 144.364H75.2725V149.591H80.4997V144.364Z" fill="#01A1FE"/>
<path d="M86.7722 144.364H81.5449V149.591H86.7722V144.364Z" fill="#1F7AEB"/>
<path d="M93.0456 144.364H87.8184V149.591H93.0456V144.364Z" fill="#1F79EB"/>
<path d="M99.3181 144.364H94.0908V149.591H99.3181V144.364Z" fill="#2177EA"/>
<path d="M105.591 144.364H100.363V149.591H105.591V144.364Z" fill="#2473E7"/>
<path d="M111.864 144.364H106.637V149.591H111.864V144.364Z" fill="#2177EA"/>
<path d="M118.136 144.364H112.909V149.591H118.136V144.364Z" fill="#1D7DEC"/>
<path d="M124.409 144.364H119.182V149.591H124.409V144.364Z" fill="#1B7FEE"/>
<path d="M130.681 144.364H125.454V149.591H130.681V144.364Z" fill="#2177E9"/>
<path d="M136.955 144.364H131.728V149.591H136.955V144.364Z" fill="#02A0FE"/>
<path d="M143.227 144.364H138V149.591H143.227V144.364Z" fill="#069BFB"/>
<path d="M149.5 144.364H144.272V149.591H149.5V144.364Z" fill="#118DF4"/>
<path d="M155.772 144.364H150.545V149.591H155.772V144.364Z" fill="#0A95F8"/>
<path d="M162.046 144.364H156.818V149.591H162.046V144.364Z" fill="#2177E9"/>
<path d="M168.318 144.364H163.091V149.591H168.318V144.364Z" fill="#1D7CEC"/>
<path d="M174.591 144.364H169.363V149.591H174.591V144.364Z" fill="#049DFC"/>
<path d="M24.0456 150.636H18.8184V155.864H24.0456V150.636Z" fill="#0F8FF5"/>
<path d="M30.3181 150.636H25.0908V155.864H30.3181V150.636Z" fill="#069BFB"/>
<path d="M36.5906 150.636H31.3633V155.864H36.5906V150.636Z" fill="#1488F2"/>
<path d="M42.864 150.636H37.6367V155.864H42.864V150.636Z" fill="#2176E9"/>
<path d="M49.1365 150.636H43.9092V155.864H49.1365V150.636Z" fill="#039FFD"/>
<path d="M55.4089 150.636H50.1816V155.864H55.4089V150.636Z" fill="#1C7EED"/>
<path d="M61.6814 150.636H56.4541V155.864H61.6814V150.636Z" fill="#059CFC"/>
<path d="M67.9548 150.636H62.7275V155.864H67.9548V150.636Z" fill="#1981EE"/>
<path d="M74.2273 150.636H69V155.864H74.2273V150.636Z" fill="#1587F1"/>
<path d="M80.4997 150.636H75.2725V155.864H80.4997V150.636Z" fill="#1B7EED"/>
<path d="M86.7722 150.636H81.5449V155.864H86.7722V150.636Z" fill="#1883F0"/>
<path d="M93.0456 150.636H87.8184V155.864H93.0456V150.636Z" fill="#2079EA"/>
<path d="M99.3181 150.636H94.0908V155.864H99.3181V150.636Z" fill="#01A1FE"/>
<path d="M105.591 150.636H100.363V155.864H105.591V150.636Z" fill="#1E7BEC"/>
<path d="M111.864 150.636H106.637V155.864H111.864V150.636Z" fill="#049DFC"/>
<path d="M118.136 150.636H112.909V155.864H118.136V150.636Z" fill="#1B7EED"/>
<path d="M124.409 150.636H119.182V155.864H124.409V150.636Z" fill="#1B7FED"/>
<path d="M130.681 150.636H125.454V155.864H130.681V150.636Z" fill="#049EFD"/>
<path d="M136.955 150.636H131.728V155.864H136.955V150.636Z" fill="#0A96F9"/>
<path d="M143.227 150.636H138V155.864H143.227V150.636Z" fill="#128BF3"/>
<path d="M149.5 150.636H144.272V155.864H149.5V150.636Z" fill="#1981EE"/>
<path d="M155.772 150.636H150.545V155.864H155.772V150.636Z" fill="#059CFC"/>
<path d="M162.046 150.636H156.818V155.864H162.046V150.636Z" fill="#1D7CEC"/>
<path d="M168.318 150.636H163.091V155.864H168.318V150.636Z" fill="#0E91F6"/>
<path d="M30.3181 156.909H25.0908V162.136H30.3181V156.909Z" fill="#0D92F7"/>
<path d="M36.5906 156.909H31.3633V162.136H36.5906V156.909Z" fill="#0C93F7"/>
<path d="M42.864 156.909H37.6367V162.136H42.864V156.909Z" fill="#059DFC"/>
<path d="M49.1365 156.909H43.9092V162.136H49.1365V156.909Z" fill="#2176E9"/>
<path d="M55.4089 156.909H50.1816V162.136H55.4089V156.909Z" fill="#069BFB"/>
<path d="M61.6814 156.909H56.4541V162.136H61.6814V156.909Z" fill="#039EFD"/>
<path d="M67.9548 156.909H62.7275V162.136H67.9548V156.909Z" fill="#069AFB"/>
<path d="M74.2273 156.909H69V162.136H74.2273V156.909Z" fill="#069AFB"/>
<path d="M80.4997 156.909H75.2725V162.136H80.4997V156.909Z" fill="#00A3FF"/>
<path d="M86.7722 156.909H81.5449V162.136H86.7722V156.909Z" fill="#2571E7"/>
<path d="M93.0456 156.909H87.8184V162.136H93.0456V156.909Z" fill="#2176E9"/>
<path d="M99.3181 156.909H94.0908V162.136H99.3181V156.909Z" fill="#039FFD"/>
<path d="M105.591 156.909H100.363V162.136H105.591V156.909Z" fill="#01A2FF"/>
<path d="M111.864 156.909H106.637V162.136H111.864V156.909Z" fill="#0E90F6"/>
<path d="M118.136 156.909H112.909V162.136H118.136V156.909Z" fill="#2473E7"/>
<path d="M124.409 156.909H119.182V162.136H124.409V156.909Z" fill="#0799FA"/>
<path d="M130.681 156.909H125.454V162.136H130.681V156.909Z" fill="#118CF4"/>
<path d="M136.955 156.909H131.728V162.136H136.955V156.909Z" fill="#0B94F8"/>
<path d="M143.227 156.909H138V162.136H143.227V156.909Z" fill="#0997F9"/>
<path d="M149.5 156.909H144.272V162.136H149.5V156.909Z" fill="#0997F9"/>
<path d="M155.772 156.909H150.545V162.136H155.772V156.909Z" fill="#079AFB"/>
<path d="M162.046 156.909H156.818V162.136H162.046V156.909Z" fill="#2276E9"/>
<path d="M36.5906 163.182H31.3633V168.409H36.5906V163.182Z" fill="#0A95F8"/>
<path d="M42.864 163.182H37.6367V168.409H42.864V163.182Z" fill="#118CF4"/>
<path d="M49.1365 163.182H43.9092V168.409H49.1365V163.182Z" fill="#0B95F8"/>
<path d="M55.4089 163.182H50.1816V168.409H55.4089V163.182Z" fill="#2375E8"/>
<path d="M61.6814 163.182H56.4541V168.409H61.6814V163.182Z" fill="#2276E9"/>
<path d="M67.9548 163.182H62.7275V168.409H67.9548V163.182Z" fill="#0F8FF5"/>
<path d="M74.2273 163.182H69V168.409H74.2273V163.182Z" fill="#2671E6"/>
<path d="M80.4997 163.182H75.2725V168.409H80.4997V163.182Z" fill="#1488F2"/>
<path d="M86.7722 163.182H81.5449V168.409H86.7722V163.182Z" fill="#0D92F7"/>
<path d="M93.0456 163.182H87.8184V168.409H93.0456V163.182Z" fill="#2571E7"/>
<path d="M99.3181 163.182H94.0908V168.409H99.3181V163.182Z" fill="#118CF4"/>
<path d="M105.591 163.182H100.363V168.409H105.591V163.182Z" fill="#1A80EE"/>
<path d="M111.864 163.182H106.637V168.409H111.864V163.182Z" fill="#118CF4"/>
<path d="M118.136 163.182H112.909V168.409H118.136V163.182Z" fill="#0B94F8"/>
<path d="M124.409 163.182H119.182V168.409H124.409V163.182Z" fill="#108EF5"/>
<path d="M130.681 163.182H125.454V168.409H130.681V163.182Z" fill="#1982EF"/>
<path d="M136.955 163.182H131.728V168.409H136.955V163.182Z" fill="#0D92F7"/>
<path d="M143.227 163.182H138V168.409H143.227V163.182Z" fill="#1488F2"/>
<path d="M149.5 163.182H144.272V168.409H149.5V163.182Z" fill="#1784F0"/>
<path d="M155.772 163.182H150.545V168.409H155.772V163.182Z" fill="#108EF5"/>
<path d="M42.864 169.455H37.6367V174.682H42.864V169.455Z" fill="#118CF4"/>
<path d="M49.1365 169.455H43.9092V174.682H49.1365V169.455Z" fill="#1982EF"/>
<path d="M55.4089 169.455H50.1816V174.682H55.4089V169.455Z" fill="#0A96F9"/>
<path d="M61.6814 169.455H56.4541V174.682H61.6814V169.455Z" fill="#0D92F7"/>
<path d="M67.9548 169.455H62.7275V174.682H67.9548V169.455Z" fill="#0F8FF5"/>
<path d="M74.2273 169.455H69V174.682H74.2273V169.455Z" fill="#0F8FF5"/>
<path d="M80.4997 169.455H75.2725V174.682H80.4997V169.455Z" fill="#2670E6"/>
<path d="M86.7722 169.455H81.5449V174.682H86.7722V169.455Z" fill="#0A96F9"/>
<path d="M93.0456 169.455H87.8184V174.682H93.0456V169.455Z" fill="#039FFD"/>
<path d="M99.3181 169.455H94.0908V174.682H99.3181V169.455Z" fill="#1685F1"/>
<path d="M105.591 169.455H100.363V174.682H105.591V169.455Z" fill="#02A0FE"/>
<path d="M111.864 169.455H106.637V174.682H111.864V169.455Z" fill="#138AF3"/>
<path d="M118.136 169.455H112.909V174.682H118.136V169.455Z" fill="#2473E7"/>
<path d="M124.409 169.455H119.182V174.682H124.409V169.455Z" fill="#059CFC"/>
<path d="M130.681 169.455H125.454V174.682H130.681V169.455Z" fill="#2177EA"/>
<path d="M136.955 169.455H131.728V174.682H136.955V169.455Z" fill="#039FFD"/>
<path d="M143.227 169.455H138V174.682H143.227V169.455Z" fill="#2473E7"/>
<path d="M149.5 169.455H144.272V174.682H149.5V169.455Z" fill="#1784F0"/>
<path d="M55.4089 175.727H50.1816V180.955H55.4089V175.727Z" fill="#1882EF"/>
<path d="M61.6814 175.727H56.4541V180.955H61.6814V175.727Z" fill="#0C93F7"/>
<path d="M67.9548 175.727H62.7275V180.955H67.9548V175.727Z" fill="#1882EF"/>
<path d="M74.2273 175.727H69V180.955H74.2273V175.727Z" fill="#059CFC"/>
<path d="M80.4997 175.727H75.2725V180.955H80.4997V175.727Z" fill="#02A1FE"/>
<path d="M86.7722 175.727H81.5449V180.955H86.7722V175.727Z" fill="#1883EF"/>
<path d="M93.0456 175.727H87.8184V180.955H93.0456V175.727Z" fill="#1E7BEB"/>
<path d="M99.3181 175.727H94.0908V180.955H99.3181V175.727Z" fill="#1C7EED"/>
<path d="M105.591 175.727H100.363V180.955H105.591V175.727Z" fill="#2473E8"/>
<path d="M111.864 175.727H106.637V180.955H111.864V175.727Z" fill="#0E91F6"/>
<path d="M118.136 175.727H112.909V180.955H118.136V175.727Z" fill="#1D7DEC"/>
<path d="M124.409 175.727H119.182V180.955H124.409V175.727Z" fill="#138AF3"/>
<path d="M130.681 175.727H125.454V180.955H130.681V175.727Z" fill="#2375E8"/>
<path d="M136.955 175.727H131.728V180.955H136.955V175.727Z" fill="#1D7CEC"/>
<path d="M74.2273 182H69V187.227H74.2273V182Z" fill="#2670E6"/>
<path d="M80.4997 182H75.2725V187.227H80.4997V182Z" fill="#1F79EB"/>
<path d="M86.7722 182H81.5449V187.227H86.7722V182Z" fill="#1B7FED"/>
<path d="M93.0456 182H87.8184V187.227H93.0456V182Z" fill="#1E7AEB"/>
<path d="M99.3181 182H94.0908V187.227H99.3181V182Z" fill="#0B94F8"/>
<path d="M105.591 182H100.363V187.227H105.591V182Z" fill="#1488F2"/>
<path d="M111.864 182H106.637V187.227H111.864V182Z" fill="#108DF4"/>
<path d="M118.136 182H112.909V187.227H118.136V182Z" fill="#1784F0"/>
<path d="M-0.0310015 104V81.3455H8.90693C10.6252 81.3455 12.089 81.6736 13.2985 82.33C14.5079 82.9789 15.4297 83.8823 16.0639 85.0401C16.7055 86.1905 17.0263 87.5179 17.0263 89.0223C17.0263 90.5267 16.7018 91.8542 16.0528 93.0046C15.4039 94.155 14.4636 95.051 13.2321 95.6926C12.0079 96.3342 10.5256 96.655 8.78525 96.655H3.08842V92.8165H8.01092C8.93274 92.8165 9.69231 92.658 10.2896 92.3409C10.8944 92.0164 11.3442 91.5702 11.6392 91.0024C11.9415 90.4272 12.0927 89.7672 12.0927 89.0223C12.0927 88.2701 11.9415 87.6138 11.6392 87.0533C11.3442 86.4855 10.8944 86.0467 10.2896 85.737C9.68494 85.4199 8.91799 85.2613 7.9888 85.2613H4.75875V104H-0.0310015ZM24.9272 81.3455V104H20.1374V81.3455H24.9272ZM33.359 81.3455L37.9275 89.0666H38.1045L42.6952 81.3455H48.1044L41.1908 92.6727L48.2592 104H42.7505L38.1045 96.2678H37.9275L33.2816 104H27.7949L34.8855 92.6727L27.9277 81.3455H33.359ZM51.1353 104V81.3455H66.4006V85.2945H55.9251V90.6927H65.6152V94.6417H55.9251V100.051H66.4448V104H51.1353ZM70.2086 104V81.3455H74.9983V100.051H84.7106V104H70.2086ZM84.1907 85.2945V81.3455H102.797V85.2945H95.8609V104H91.1264V85.2945H84.1907ZM105.861 104V81.3455H114.799C116.51 81.3455 117.97 81.6515 119.179 82.2636C120.396 82.8683 121.321 83.7274 121.956 84.841C122.597 85.9472 122.918 87.2488 122.918 88.7458C122.918 90.2502 122.594 91.5444 121.945 92.6285C121.296 93.7052 120.355 94.5311 119.124 95.1063C117.9 95.6815 116.417 95.9691 114.677 95.9691H108.693V92.1196H113.903C114.817 92.1196 115.577 91.9943 116.181 91.7435C116.786 91.4928 117.236 91.1167 117.531 90.6152C117.833 90.1138 117.984 89.4906 117.984 88.7458C117.984 87.9936 117.833 87.3594 117.531 86.8432C117.236 86.3269 116.782 85.9361 116.17 85.6706C115.566 85.3978 114.802 85.2613 113.881 85.2613H110.651V104H105.861ZM118.095 93.6904L123.726 104H118.438L112.929 93.6904H118.095ZM140.296 81.3455H145.086V96.0576C145.086 97.7095 144.691 99.1549 143.902 100.394C143.121 101.633 142.025 102.599 140.617 103.292C139.208 103.978 137.568 104.321 135.694 104.321C133.814 104.321 132.169 103.978 130.761 103.292C129.352 102.599 128.257 101.633 127.475 100.394C126.694 99.1549 126.303 97.7095 126.303 96.0576V81.3455H131.093V95.6483C131.093 96.5112 131.281 97.2781 131.657 97.9492C132.04 98.6203 132.579 99.1476 133.272 99.531C133.965 99.9145 134.773 100.106 135.694 100.106C136.624 100.106 137.431 99.9145 138.117 99.531C138.81 99.1476 139.345 98.6203 139.721 97.9492C140.104 97.2781 140.296 96.5112 140.296 95.6483V81.3455ZM161.316 87.8608C161.228 86.9685 160.848 86.2753 160.177 85.7812C159.506 85.2871 158.595 85.0401 157.445 85.0401C156.663 85.0401 156.003 85.1507 155.465 85.3719C154.926 85.5858 154.513 85.8845 154.226 86.268C153.945 86.6514 153.805 87.0865 153.805 87.5732C153.791 87.9788 153.875 88.3328 154.06 88.6352C154.251 88.9375 154.513 89.1993 154.845 89.4206C155.177 89.6344 155.56 89.8225 155.996 89.9847C156.431 90.1396 156.895 90.2723 157.389 90.3829L159.425 90.8697C160.413 91.0909 161.32 91.3859 162.146 91.7546C162.972 92.1233 163.687 92.5769 164.292 93.1152C164.897 93.6535 165.365 94.2877 165.697 95.0178C166.036 95.7479 166.209 96.5849 166.217 97.5289C166.209 98.9153 165.855 100.117 165.155 101.135C164.462 102.145 163.459 102.931 162.146 103.491C160.841 104.044 159.266 104.321 157.423 104.321C155.594 104.321 154.001 104.041 152.644 103.48C151.294 102.92 150.24 102.09 149.48 100.991C148.728 99.885 148.333 98.517 148.297 96.8873H152.931C152.983 97.6468 153.201 98.2811 153.584 98.7899C153.975 99.2914 154.495 99.6712 155.144 99.9293C155.8 100.18 156.541 100.305 157.367 100.305C158.178 100.305 158.883 100.187 159.48 99.9514C160.085 99.7154 160.553 99.3872 160.885 98.9669C161.217 98.5465 161.383 98.0635 161.383 97.5178C161.383 97.0089 161.231 96.5812 160.929 96.2346C160.634 95.888 160.199 95.593 159.624 95.3497C159.056 95.1063 158.359 94.8851 157.533 94.686L155.066 94.0665C153.156 93.6019 151.648 92.8755 150.542 91.8873C149.436 90.8992 148.886 89.5681 148.894 87.894C148.886 86.5224 149.252 85.324 149.989 84.299C150.734 83.2739 151.755 82.4738 153.053 81.8985C154.351 81.3233 155.826 81.0357 157.478 81.0357C159.159 81.0357 160.627 81.3233 161.88 81.8985C163.141 82.4738 164.122 83.2739 164.823 84.299C165.523 85.324 165.885 86.5113 165.907 87.8608H161.316ZM168.576 85.2945V81.3455H187.181V85.2945H180.246V104H175.511V85.2945H168.576Z" fill="#113A51"/>
<path d="M74.2273 0H69V5.22727H74.2273V0Z" fill="#108EF5"/>
<path d="M80.4997 0H75.2725V5.22727H80.4997V0Z" fill="#0997F9"/>
<path d="M86.7722 0H81.5449V5.22727H86.7722V0Z" fill="#1586F1"/>
<path d="M93.0456 0H87.8184V5.22727H93.0456V0Z" fill="#2670E6"/>
<path d="M99.3181 0H94.0908V5.22727H99.3181V0Z" fill="#2079EA"/>
<path d="M105.591 0H100.363V5.22727H105.591V0Z" fill="#1488F2"/>
<path d="M111.864 0H106.637V5.22727H111.864V0Z" fill="#0997F9"/>
<path d="M118.136 0H112.909V5.22727H118.136V0Z" fill="#0898FA"/>
<path d="M55.4089 6H50.1816V11.2273H55.4089V6Z" fill="#138AF3"/>
<path d="M61.6814 6H56.4541V11.2273H61.6814V6Z" fill="#069AFB"/>
<path d="M67.9548 6H62.7275V11.2273H67.9548V6Z" fill="#0D92F7"/>
<path d="M74.2273 6H69V11.2273H74.2273V6Z" fill="#0997F9"/>
<path d="M80.4997 6H75.2725V11.2273H80.4997V6Z" fill="#2473E7"/>
<path d="M86.7722 6H81.5449V11.2273H86.7722V6Z" fill="#1A80EE"/>
<path d="M93.0456 6H87.8184V11.2273H93.0456V6Z" fill="#0899FA"/>
<path d="M99.3181 6H94.0908V11.2273H99.3181V6Z" fill="#0B94F8"/>
<path d="M105.591 6H100.363V11.2273H105.591V6Z" fill="#1587F1"/>
<path d="M111.864 6H106.637V11.2273H111.864V6Z" fill="#0997F9"/>
<path d="M118.136 6H112.909V11.2273H118.136V6Z" fill="#1A80EE"/>
<path d="M124.409 6H119.182V11.2273H124.409V6Z" fill="#059DFC"/>
<path d="M130.681 6H125.454V11.2273H130.681V6Z" fill="#059DFC"/>
<path d="M136.955 6H131.728V11.2273H136.955V6Z" fill="#1981EF"/>
<path d="M42.864 12H37.6367V17.2273H42.864V12Z" fill="#0A96F9"/>
<path d="M49.1365 12H43.9092V17.2273H49.1365V12Z" fill="#0A95F8"/>
<path d="M55.4089 12H50.1816V17.2273H55.4089V12Z" fill="#00A2FF"/>
<path d="M61.6814 12H56.4541V17.2273H61.6814V12Z" fill="#0B94F8"/>
<path d="M67.9548 12H62.7275V17.2273H67.9548V12Z" fill="#1B7EED"/>
<path d="M74.2273 12H69V17.2273H74.2273V12Z" fill="#2079EA"/>
<path d="M80.4997 12H75.2725V17.2273H80.4997V12Z" fill="#1F7AEB"/>
<path d="M86.7722 12H81.5449V17.2273H86.7722V12Z" fill="#2571E7"/>
<path d="M93.0456 12H87.8184V17.2273H93.0456V12Z" fill="#0E90F6"/>
<path d="M99.3181 12H94.0908V17.2273H99.3181V12Z" fill="#00A2FF"/>
<path d="M105.591 12H100.363V17.2273H105.591V12Z" fill="#1982EF"/>
<path d="M111.864 12H106.637V17.2273H111.864V12Z" fill="#0B95F8"/>
<path d="M118.136 12H112.909V17.2273H118.136V12Z" fill="#0B94F8"/>
<path d="M124.409 12H119.182V17.2273H124.409V12Z" fill="#2177EA"/>
<path d="M130.681 12H125.454V17.2273H130.681V12Z" fill="#039FFD"/>
<path d="M136.955 12H131.728V17.2273H136.955V12Z" fill="#1883EF"/>
<path d="M143.227 12H138V17.2273H143.227V12Z" fill="#1C7EED"/>
<path d="M149.5 12H144.272V17.2273H149.5V12Z" fill="#0E90F6"/>
<path d="M36.5906 18H31.3633V23.2273H36.5906V18Z" fill="#118DF4"/>
<path d="M42.864 18H37.6367V23.2273H42.864V18Z" fill="#2670E6"/>
<path d="M49.1365 18H43.9092V23.2273H49.1365V18Z" fill="#1981EE"/>
<path d="M55.4089 18H50.1816V23.2273H55.4089V18Z" fill="#108EF5"/>
<path d="M61.6814 18H56.4541V23.2273H61.6814V18Z" fill="#0B94F8"/>
<path d="M67.9548 18H62.7275V23.2273H67.9548V18Z" fill="#0997F9"/>
<path d="M74.2273 18H69V23.2273H74.2273V18Z" fill="#0A95F8"/>
<path d="M80.4997 18H75.2725V23.2273H80.4997V18Z" fill="#0E90F6"/>
<path d="M86.7722 18H81.5449V23.2273H86.7722V18Z" fill="#0B95F8"/>
<path d="M93.0456 18H87.8184V23.2273H93.0456V18Z" fill="#0F8FF5"/>
<path d="M99.3181 18H94.0908V23.2273H99.3181V18Z" fill="#1883F0"/>
<path d="M105.591 18H100.363V23.2273H105.591V18Z" fill="#039EFD"/>
<path d="M111.864 18H106.637V23.2273H111.864V18Z" fill="#1488F2"/>
<path d="M118.136 18H112.909V23.2273H118.136V18Z" fill="#2374E8"/>
<path d="M124.409 18H119.182V23.2273H124.409V18Z" fill="#0E90F6"/>
<path d="M130.681 18H125.454V23.2273H130.681V18Z" fill="#1685F0"/>
<path d="M136.955 18H131.728V23.2273H136.955V18Z" fill="#02A1FE"/>
<path d="M143.227 18H138V23.2273H143.227V18Z" fill="#2375E8"/>
<path d="M149.5 18H144.272V23.2273H149.5V18Z" fill="#1B7EED"/>
<path d="M155.772 18H150.545V23.2273H155.772V18Z" fill="#059CFC"/>
<path d="M30.3181 24H25.0908V29.2273H30.3181V24Z" fill="#2374E8"/>
<path d="M36.5906 24H31.3633V29.2273H36.5906V24Z" fill="#1685F0"/>
<path d="M42.864 24H37.6367V29.2273H42.864V24Z" fill="#0898FA"/>
<path d="M49.1365 24H43.9092V29.2273H49.1365V24Z" fill="#1E7BEC"/>
<path d="M55.4089 24H50.1816V29.2273H55.4089V24Z" fill="#039EFD"/>
<path d="M61.6814 24H56.4541V29.2273H61.6814V24Z" fill="#1685F0"/>
<path d="M67.9548 24H62.7275V29.2273H67.9548V24Z" fill="#1D7CEC"/>
<path d="M74.2273 24H69V29.2273H74.2273V24Z" fill="#1C7EED"/>
<path d="M80.4997 24H75.2725V29.2273H80.4997V24Z" fill="#069AFB"/>
<path d="M86.7722 24H81.5449V29.2273H86.7722V24Z" fill="#2671E6"/>
<path d="M93.0456 24H87.8184V29.2273H93.0456V24Z" fill="#2078EA"/>
<path d="M99.3181 24H94.0908V29.2273H99.3181V24Z" fill="#2671E6"/>
<path d="M105.591 24H100.363V29.2273H105.591V24Z" fill="#0C93F7"/>
<path d="M111.864 24H106.637V29.2273H111.864V24Z" fill="#069BFB"/>
<path d="M118.136 24H112.909V29.2273H118.136V24Z" fill="#1C7DED"/>
<path d="M124.409 24H119.182V29.2273H124.409V24Z" fill="#1686F1"/>
<path d="M130.681 24H125.454V29.2273H130.681V24Z" fill="#2276E9"/>
<path d="M136.955 24H131.728V29.2273H136.955V24Z" fill="#1E7AEB"/>
<path d="M143.227 24H138V29.2273H143.227V24Z" fill="#2374E8"/>
<path d="M149.5 24H144.272V29.2273H149.5V24Z" fill="#2572E7"/>
<path d="M155.772 24H150.545V29.2273H155.772V24Z" fill="#1784F0"/>
<path d="M162.046 24H156.818V29.2273H162.046V24Z" fill="#2375E8"/>
<path d="M24.0456 30H18.8184V35.2273H24.0456V30Z" fill="#0A96F9"/>
<path d="M30.3181 30H25.0908V35.2273H30.3181V30Z" fill="#1883EF"/>
<path d="M36.5906 30H31.3633V35.2273H36.5906V30Z" fill="#0D91F6"/>
<path d="M42.864 30H37.6367V35.2273H42.864V30Z" fill="#1E7BEB"/>
<path d="M49.1365 30H43.9092V35.2273H49.1365V30Z" fill="#2078EA"/>
<path d="M55.4089 30H50.1816V35.2273H55.4089V30Z" fill="#2375E8"/>
<path d="M61.6814 30H56.4541V35.2273H61.6814V30Z" fill="#2572E7"/>
<path d="M67.9548 30H62.7275V35.2273H67.9548V30Z" fill="#0D92F7"/>
<path d="M74.2273 30H69V35.2273H74.2273V30Z" fill="#108EF5"/>
<path d="M80.4997 30H75.2725V35.2273H80.4997V30Z" fill="#1B7FED"/>
<path d="M86.7722 30H81.5449V35.2273H86.7722V30Z" fill="#1C7EED"/>
<path d="M93.0456 30H87.8184V35.2273H93.0456V30Z" fill="#1685F1"/>
<path d="M99.3181 30H94.0908V35.2273H99.3181V30Z" fill="#1B7EED"/>
<path d="M105.591 30H100.363V35.2273H105.591V30Z" fill="#0B94F8"/>
<path d="M111.864 30H106.637V35.2273H111.864V30Z" fill="#2176E9"/>
<path d="M118.136 30H112.909V35.2273H118.136V30Z" fill="#0B95F8"/>
<path d="M124.409 30H119.182V35.2273H124.409V30Z" fill="#039FFD"/>
<path d="M130.681 30H125.454V35.2273H130.681V30Z" fill="#1587F1"/>
<path d="M136.955 30H131.728V35.2273H136.955V30Z" fill="#108DF4"/>
<path d="M143.227 30H138V35.2273H143.227V30Z" fill="#2078EA"/>
<path d="M149.5 30H144.272V35.2273H149.5V30Z" fill="#1D7DEC"/>
<path d="M155.772 30H150.545V35.2273H155.772V30Z" fill="#1883F0"/>
<path d="M162.046 30H156.818V35.2273H162.046V30Z" fill="#1C7DED"/>
<path d="M168.318 30H163.091V35.2273H168.318V30Z" fill="#0F8FF5"/>
<path d="M17.7727 36H12.5454V41.2273H17.7727V36Z" fill="#00A2FF"/>
<path d="M24.0456 36H18.8184V41.2273H24.0456V36Z" fill="#2472E7"/>
<path d="M30.3181 36H25.0908V41.2273H30.3181V36Z" fill="#2473E7"/>
<path d="M36.5906 36H31.3633V41.2273H36.5906V36Z" fill="#1982EF"/>
<path d="M42.864 36H37.6367V41.2273H42.864V36Z" fill="#2572E7"/>
<path d="M49.1365 36H43.9092V41.2273H49.1365V36Z" fill="#1B7EED"/>
<path d="M55.4089 36H50.1816V41.2273H55.4089V36Z" fill="#039EFD"/>
<path d="M61.6814 36H56.4541V41.2273H61.6814V36Z" fill="#0898FA"/>
<path d="M67.9548 36H62.7275V41.2273H67.9548V36Z" fill="#2374E8"/>
<path d="M74.2273 36H69V41.2273H74.2273V36Z" fill="#2374E8"/>
<path d="M80.4997 36H75.2725V41.2273H80.4997V36Z" fill="#2177E9"/>
<path d="M86.7722 36H81.5449V41.2273H86.7722V36Z" fill="#0E90F6"/>
<path d="M93.0456 36H87.8184V41.2273H93.0456V36Z" fill="#0997F9"/>
<path d="M99.3181 36H94.0908V41.2273H99.3181V36Z" fill="#2079EA"/>
<path d="M105.591 36H100.363V41.2273H105.591V36Z" fill="#1A80EE"/>
<path d="M111.864 36H106.637V41.2273H111.864V36Z" fill="#1981EE"/>
<path d="M118.136 36H112.909V41.2273H118.136V36Z" fill="#1982EF"/>
<path d="M124.409 36H119.182V41.2273H124.409V36Z" fill="#128BF3"/>
<path d="M130.681 36H125.454V41.2273H130.681V36Z" fill="#1981EF"/>
<path d="M136.955 36H131.728V41.2273H136.955V36Z" fill="#1586F1"/>
<path d="M143.227 36H138V41.2273H143.227V36Z" fill="#2079EA"/>
<path d="M149.5 36H144.272V41.2273H149.5V36Z" fill="#1488F2"/>
<path d="M155.772 36H150.545V41.2273H155.772V36Z" fill="#1C7EED"/>
<path d="M162.046 36H156.818V41.2273H162.046V36Z" fill="#039EFD"/>
<path d="M168.318 36H163.091V41.2273H168.318V36Z" fill="#0899FA"/>
<path d="M174.591 36H169.363V41.2273H174.591V36Z" fill="#0B94F8"/>
<path d="M11.5 42H6.27271V47.2273H11.5V42Z" fill="#138AF3"/>
<path d="M17.7727 42H12.5454V47.2273H17.7727V42Z" fill="#138AF3"/>
<path d="M24.0456 42H18.8184V47.2273H24.0456V42Z" fill="#059CFC"/>
<path d="M30.3181 42H25.0908V47.2273H30.3181V42Z" fill="#0D91F6"/>
<path d="M36.5906 42H31.3633V47.2273H36.5906V42Z" fill="#0D91F6"/>
<path d="M42.864 42H37.6367V47.2273H42.864V42Z" fill="#1883F0"/>
<path d="M49.1365 42H43.9092V47.2273H49.1365V42Z" fill="#118CF4"/>
<path d="M55.4089 42H50.1816V47.2273H55.4089V42Z" fill="#02A0FE"/>
<path d="M61.6814 42H56.4541V47.2273H61.6814V42Z" fill="#0B94F8"/>
<path d="M67.9548 42H62.7275V47.2273H67.9548V42Z" fill="#1586F1"/>
<path d="M74.2273 42H69V47.2273H74.2273V42Z" fill="#1B7FEE"/>
<path d="M80.4997 42H75.2725V47.2273H80.4997V42Z" fill="#128BF3"/>
<path d="M86.7722 42H81.5449V47.2273H86.7722V42Z" fill="#118CF4"/>
<path d="M93.0456 42H87.8184V47.2273H93.0456V42Z" fill="#128BF3"/>
<path d="M99.3181 42H94.0908V47.2273H99.3181V42Z" fill="#0C93F7"/>
<path d="M105.591 42H100.363V47.2273H105.591V42Z" fill="#059CFC"/>
<path d="M111.864 42H106.637V47.2273H111.864V42Z" fill="#108DF4"/>
<path d="M118.136 42H112.909V47.2273H118.136V42Z" fill="#02A0FE"/>
<path d="M124.409 42H119.182V47.2273H124.409V42Z" fill="#1883F0"/>
<path d="M130.681 42H125.454V47.2273H130.681V42Z" fill="#0F8FF5"/>
<path d="M136.955 42H131.728V47.2273H136.955V42Z" fill="#1784F0"/>
<path d="M143.227 42H138V47.2273H143.227V42Z" fill="#059CFC"/>
<path d="M149.5 42H144.272V47.2273H149.5V42Z" fill="#1D7CEC"/>
<path d="M155.772 42H150.545V47.2273H155.772V42Z" fill="#059CFC"/>
<path d="M162.046 42H156.818V47.2273H162.046V42Z" fill="#0C93F7"/>
<path d="M168.318 42H163.091V47.2273H168.318V42Z" fill="#0898FA"/>
<path d="M174.591 42H169.363V47.2273H174.591V42Z" fill="#1685F0"/>
<path d="M180.864 42H175.637V47.2273H180.864V42Z" fill="#1784F0"/>
<path d="M11.5 48H6.27271V53.2273H11.5V48Z" fill="#1E7AEB"/>
<path d="M17.7727 48H12.5454V53.2273H17.7727V48Z" fill="#1E7BEB"/>
<path d="M24.0456 48H18.8184V53.2273H24.0456V48Z" fill="#0898FA"/>
<path d="M30.3181 48H25.0908V53.2273H30.3181V48Z" fill="#079AFB"/>
<path d="M36.5906 48H31.3633V53.2273H36.5906V48Z" fill="#138AF3"/>
<path d="M42.864 48H37.6367V53.2273H42.864V48Z" fill="#00A3FF"/>
<path d="M49.1365 48H43.9092V53.2273H49.1365V48Z" fill="#118CF4"/>
<path d="M55.4089 48H50.1816V53.2273H55.4089V48Z" fill="#079AFB"/>
<path d="M61.6814 48H56.4541V53.2273H61.6814V48Z" fill="#0D92F7"/>
<path d="M67.9548 48H62.7275V53.2273H67.9548V48Z" fill="#1981EE"/>
<path d="M74.2273 48H69V53.2273H74.2273V48Z" fill="#1E7AEB"/>
<path d="M80.4997 48H75.2725V53.2273H80.4997V48Z" fill="#0A96F9"/>
<path d="M86.7722 48H81.5449V53.2273H86.7722V48Z" fill="#1E7BEB"/>
<path d="M93.0456 48H87.8184V53.2273H93.0456V48Z" fill="#138AF3"/>
<path d="M99.3181 48H94.0908V53.2273H99.3181V48Z" fill="#1B7EED"/>
<path d="M105.591 48H100.363V53.2273H105.591V48Z" fill="#108DF4"/>
<path d="M111.864 48H106.637V53.2273H111.864V48Z" fill="#1B7EED"/>
<path d="M118.136 48H112.909V53.2273H118.136V48Z" fill="#0E90F6"/>
<path d="M124.409 48H119.182V53.2273H124.409V48Z" fill="#0997F9"/>
<path d="M130.681 48H125.454V53.2273H130.681V48Z" fill="#1981EE"/>
<path d="M136.955 48H131.728V53.2273H136.955V48Z" fill="#2275E9"/>
<path d="M143.227 48H138V53.2273H143.227V48Z" fill="#01A2FF"/>
<path d="M149.5 48H144.272V53.2273H149.5V48Z" fill="#2079EA"/>
<path d="M155.772 48H150.545V53.2273H155.772V48Z" fill="#118DF4"/>
<path d="M162.046 48H156.818V53.2273H162.046V48Z" fill="#059CFC"/>
<path d="M168.318 48H163.091V53.2273H168.318V48Z" fill="#1488F2"/>
<path d="M174.591 48H169.363V53.2273H174.591V48Z" fill="#0799FA"/>
<path d="M180.864 48H175.637V53.2273H180.864V48Z" fill="#1D7CEC"/>
<path d="M5.22727 54H0V59.2273H5.22727V54Z" fill="#0D92F7"/>
<path d="M11.5 54H6.27271V59.2273H11.5V54Z" fill="#1587F1"/>
<path d="M17.7727 54H12.5454V59.2273H17.7727V54Z" fill="#0799FA"/>
<path d="M24.0456 54H18.8184V59.2273H24.0456V54Z" fill="#0D92F7"/>
<path d="M30.3181 54H25.0908V59.2273H30.3181V54Z" fill="#0799FA"/>
<path d="M36.5906 54H31.3633V59.2273H36.5906V54Z" fill="#0898FA"/>
<path d="M42.864 54H37.6367V59.2273H42.864V54Z" fill="#118CF4"/>
<path d="M49.1365 54H43.9092V59.2273H49.1365V54Z" fill="#069AFB"/>
<path d="M55.4089 54H50.1816V59.2273H55.4089V54Z" fill="#0F8FF5"/>
<path d="M61.6814 54H56.4541V59.2273H61.6814V54Z" fill="#1981EE"/>
<path d="M67.9548 54H62.7275V59.2273H67.9548V54Z" fill="#039EFD"/>
<path d="M74.2273 54H69V59.2273H74.2273V54Z" fill="#1A80EE"/>
<path d="M80.4997 54H75.2725V59.2273H80.4997V54Z" fill="#108EF5"/>
<path d="M86.7722 54H81.5449V59.2273H86.7722V54Z" fill="#108DF4"/>
<path d="M93.0456 54H87.8184V59.2273H93.0456V54Z" fill="#118CF4"/>
<path d="M99.3181 54H94.0908V59.2273H99.3181V54Z" fill="#118DF4"/>
<path d="M105.591 54H100.363V59.2273H105.591V54Z" fill="#00A3FF"/>
<path d="M111.864 54H106.637V59.2273H111.864V54Z" fill="#1488F2"/>
<path d="M118.136 54H112.909V59.2273H118.136V54Z" fill="#1E7BEB"/>
<path d="M124.409 54H119.182V59.2273H124.409V54Z" fill="#0A96F9"/>
<path d="M130.681 54H125.454V59.2273H130.681V54Z" fill="#1A80EE"/>
<path d="M136.955 54H131.728V59.2273H136.955V54Z" fill="#1686F1"/>
<path d="M143.227 54H138V59.2273H143.227V54Z" fill="#0F8FF5"/>
<path d="M149.5 54H144.272V59.2273H149.5V54Z" fill="#118CF4"/>
<path d="M155.772 54H150.545V59.2273H155.772V54Z" fill="#1784F0"/>
<path d="M162.046 54H156.818V59.2273H162.046V54Z" fill="#0898FA"/>
<path d="M168.318 54H163.091V59.2273H168.318V54Z" fill="#1E7BEC"/>
<path d="M174.591 54H169.363V59.2273H174.591V54Z" fill="#049DFC"/>
<path d="M180.864 54H175.637V59.2273H180.864V54Z" fill="#2473E8"/>
<path d="M187.136 54H181.909V59.2273H187.136V54Z" fill="#0898FA"/>
<path d="M5.22727 60H0V65.2273H5.22727V60Z" fill="#2571E7"/>
<path d="M11.5 60H6.27271V65.2273H11.5V60Z" fill="#108EF5"/>
<path d="M17.7727 60H12.5454V65.2273H17.7727V60Z" fill="#2276E9"/>
<path d="M24.0456 60H18.8184V65.2273H24.0456V60Z" fill="#0C93F7"/>
<path d="M30.3181 60H25.0908V65.2273H30.3181V60Z" fill="#0A95F8"/>
<path d="M36.5906 60H31.3633V65.2273H36.5906V60Z" fill="#049EFD"/>
<path d="M42.864 60H37.6367V65.2273H42.864V60Z" fill="#01A2FF"/>
<path d="M49.1365 60H43.9092V65.2273H49.1365V60Z" fill="#1E7AEB"/>
<path d="M55.4089 60H50.1816V65.2273H55.4089V60Z" fill="#049DFC"/>
<path d="M61.6814 60H56.4541V65.2273H61.6814V60Z" fill="#0997F9"/>
<path d="M67.9548 60H62.7275V65.2273H67.9548V60Z" fill="#2276E9"/>
<path d="M74.2273 60H69V65.2273H74.2273V60Z" fill="#1D7DEC"/>
<path d="M80.4997 60H75.2725V65.2273H80.4997V60Z" fill="#069AFB"/>
<path d="M86.7722 60H81.5449V65.2273H86.7722V60Z" fill="#2473E7"/>
<path d="M93.0456 60H87.8184V65.2273H93.0456V60Z" fill="#0997F9"/>
<path d="M99.3181 60H94.0908V65.2273H99.3181V60Z" fill="#0E90F6"/>
<path d="M105.591 60H100.363V65.2273H105.591V60Z" fill="#0D92F7"/>
<path d="M111.864 60H106.637V65.2273H111.864V60Z" fill="#059CFC"/>
<path d="M118.136 60H112.909V65.2273H118.136V60Z" fill="#0F8FF5"/>
<path d="M124.409 60H119.182V65.2273H124.409V60Z" fill="#1B7FEE"/>
<path d="M130.681 60H125.454V65.2273H130.681V60Z" fill="#2176E9"/>
<path d="M136.955 60H131.728V65.2273H136.955V60Z" fill="#079AFB"/>
<path d="M143.227 60H138V65.2273H143.227V60Z" fill="#1E7AEB"/>
<path d="M149.5 60H144.272V65.2273H149.5V60Z" fill="#1F7AEB"/>
<path d="M155.772 60H150.545V65.2273H155.772V60Z" fill="#069BFB"/>
<path d="M162.046 60H156.818V65.2273H162.046V60Z" fill="#02A0FE"/>
<path d="M168.318 60H163.091V65.2273H168.318V60Z" fill="#1586F1"/>
<path d="M174.591 60H169.363V65.2273H174.591V60Z" fill="#00A3FF"/>
<path d="M180.864 60H175.637V65.2273H180.864V60Z" fill="#0B94F8"/>
<path d="M187.136 60H181.909V65.2273H187.136V60Z" fill="#2177EA"/>
<path d="M5.22727 66H0V71.2273H5.22727V66Z" fill="#1D7DEC"/>
<path d="M11.5 66H6.27271V71.2273H11.5V66Z" fill="#059DFC"/>
<path d="M17.7727 66H12.5454V71.2273H17.7727V66Z" fill="#1E7AEB"/>
<path d="M24.0456 66H18.8184V71.2273H24.0456V66Z" fill="#0898FA"/>
<path d="M30.3181 66H25.0908V71.2273H30.3181V66Z" fill="#2176E9"/>
<path d="M36.5906 66H31.3633V71.2273H36.5906V66Z" fill="#1B7EED"/>
<path d="M42.864 66H37.6367V71.2273H42.864V66Z" fill="#2177EA"/>
<path d="M49.1365 66H43.9092V71.2273H49.1365V66Z" fill="#0B94F8"/>
<path d="M55.4089 66H50.1816V71.2273H55.4089V66Z" fill="#0C93F7"/>
<path d="M61.6814 66H56.4541V71.2273H61.6814V66Z" fill="#1488F2"/>
<path d="M67.9548 66H62.7275V71.2273H67.9548V66Z" fill="#039EFD"/>
<path d="M74.2273 66H69V71.2273H74.2273V66Z" fill="#1389F2"/>
<path d="M80.4997 66H75.2725V71.2273H80.4997V66Z" fill="#0D92F7"/>
<path d="M86.7722 66H81.5449V71.2273H86.7722V66Z" fill="#1981EE"/>
<path d="M93.0456 66H87.8184V71.2273H93.0456V66Z" fill="#02A0FE"/>
<path d="M99.3181 66H94.0908V71.2273H99.3181V66Z" fill="#00A3FF"/>
<path d="M105.591 66H100.363V71.2273H105.591V66Z" fill="#069AFB"/>
<path d="M111.864 66H106.637V71.2273H111.864V66Z" fill="#059DFC"/>
<path d="M118.136 66H112.909V71.2273H118.136V66Z" fill="#1F79EB"/>
<path d="M124.409 66H119.182V71.2273H124.409V66Z" fill="#2671E6"/>
<path d="M130.681 66H125.454V71.2273H130.681V66Z" fill="#01A2FF"/>
<path d="M136.955 66H131.728V71.2273H136.955V66Z" fill="#2572E7"/>
<path d="M143.227 66H138V71.2273H143.227V66Z" fill="#138AF3"/>
<path d="M149.5 66H144.272V71.2273H149.5V66Z" fill="#108DF4"/>
<path d="M155.772 66H150.545V71.2273H155.772V66Z" fill="#2177E9"/>
<path d="M162.046 66H156.818V71.2273H162.046V66Z" fill="#0D92F7"/>
<path d="M168.318 66H163.091V71.2273H168.318V66Z" fill="#0898FA"/>
<path d="M174.591 66H169.363V71.2273H174.591V66Z" fill="#01A1FE"/>
<path d="M180.864 66H175.637V71.2273H180.864V66Z" fill="#1784F0"/>
<path d="M187.136 66H181.909V71.2273H187.136V66Z" fill="#1883F0"/>
</g>
<defs>
<clipPath id="clip0_32_2750">
<rect width="187" height="187" fill="white"/>
</clipPath>
</defs>
</svg>
