<svg width="203" height="203" viewBox="0 0 203 203" fill="none" xmlns="http://www.w3.org/2000/svg">
<path d="M13.2273 121H8V126.227H13.2273V121Z" fill="#0F8FF5"/>
<path d="M19.5 121H14.2727V126.227H19.5V121Z" fill="#00A3FF"/>
<path d="M25.7727 121H20.5454V126.227H25.7727V121Z" fill="#0F8FF5"/>
<path d="M32.0456 121H26.8184V126.227H32.0456V121Z" fill="#0E91F6"/>
<path d="M38.3181 121H33.0908V126.227H38.3181V121Z" fill="#069AFB"/>
<path d="M44.5906 121H39.3633V126.227H44.5906V121Z" fill="#2176E9"/>
<path d="M50.864 121H45.6367V126.227H50.864V121Z" fill="#00A2FF"/>
<path d="M57.1365 121H51.9092V126.227H57.1365V121Z" fill="#1685F0"/>
<path d="M63.4089 121H58.1816V126.227H63.4089V121Z" fill="#059DFC"/>
<path d="M69.6814 121H64.4541V126.227H69.6814V121Z" fill="#1F79EB"/>
<path d="M75.9548 121H70.7275V126.227H75.9548V121Z" fill="#0997F9"/>
<path d="M82.2273 121H77V126.227H82.2273V121Z" fill="#0E90F6"/>
<path d="M88.4997 121H83.2725V126.227H88.4997V121Z" fill="#059CFC"/>
<path d="M94.7722 121H89.5449V126.227H94.7722V121Z" fill="#1784F0"/>
<path d="M101.046 121H95.8184V126.227H101.046V121Z" fill="#1D7CEC"/>
<path d="M107.318 121H102.091V126.227H107.318V121Z" fill="#0D91F6"/>
<path d="M113.591 121H108.363V126.227H113.591V121Z" fill="#1F7AEB"/>
<path d="M119.864 121H114.637V126.227H119.864V121Z" fill="#1883F0"/>
<path d="M126.136 121H120.909V126.227H126.136V121Z" fill="#1882EF"/>
<path d="M132.409 121H127.182V126.227H132.409V121Z" fill="#118CF4"/>
<path d="M138.681 121H133.454V126.227H138.681V121Z" fill="#0A96F9"/>
<path d="M144.955 121H139.728V126.227H144.955V121Z" fill="#0E90F6"/>
<path d="M151.227 121H146V126.227H151.227V121Z" fill="#0B95F8"/>
<path d="M157.5 121H152.272V126.227H157.5V121Z" fill="#2079EA"/>
<path d="M163.772 121H158.545V126.227H163.772V121Z" fill="#2078EA"/>
<path d="M170.046 121H164.818V126.227H170.046V121Z" fill="#1C7EED"/>
<path d="M176.318 121H171.091V126.227H176.318V121Z" fill="#1784F0"/>
<path d="M182.591 121H177.363V126.227H182.591V121Z" fill="#0E91F6"/>
<path d="M188.864 121H183.637V126.227H188.864V121Z" fill="#0F8FF5"/>
<path d="M195.136 121H189.909V126.227H195.136V121Z" fill="#0A95F8"/>
<path d="M13.2273 127.273H8V132.5H13.2273V127.273Z" fill="#059CFC"/>
<path d="M19.5 127.273H14.2727V132.5H19.5V127.273Z" fill="#1B7EED"/>
<path d="M25.7727 127.273H20.5454V132.5H25.7727V127.273Z" fill="#1D7CEC"/>
<path d="M32.0456 127.273H26.8184V132.5H32.0456V127.273Z" fill="#2571E7"/>
<path d="M38.3181 127.273H33.0908V132.5H38.3181V127.273Z" fill="#049EFD"/>
<path d="M44.5906 127.273H39.3633V132.5H44.5906V127.273Z" fill="#2078EA"/>
<path d="M50.864 127.273H45.6367V132.5H50.864V127.273Z" fill="#1883F0"/>
<path d="M57.1365 127.273H51.9092V132.5H57.1365V127.273Z" fill="#2473E8"/>
<path d="M63.4089 127.273H58.1816V132.5H63.4089V127.273Z" fill="#049EFD"/>
<path d="M69.6814 127.273H64.4541V132.5H69.6814V127.273Z" fill="#0F8FF5"/>
<path d="M75.9548 127.273H70.7275V132.5H75.9548V127.273Z" fill="#039EFD"/>
<path d="M82.2273 127.273H77V132.5H82.2273V127.273Z" fill="#0E90F6"/>
<path d="M88.4997 127.273H83.2725V132.5H88.4997V127.273Z" fill="#2275E9"/>
<path d="M94.7722 127.273H89.5449V132.5H94.7722V127.273Z" fill="#138AF3"/>
<path d="M101.046 127.273H95.8184V132.5H101.046V127.273Z" fill="#2375E8"/>
<path d="M107.318 127.273H102.091V132.5H107.318V127.273Z" fill="#0899FA"/>
<path d="M113.591 127.273H108.363V132.5H113.591V127.273Z" fill="#02A0FE"/>
<path d="M119.864 127.273H114.637V132.5H119.864V127.273Z" fill="#1587F2"/>
<path d="M126.136 127.273H120.909V132.5H126.136V127.273Z" fill="#128BF3"/>
<path d="M132.409 127.273H127.182V132.5H132.409V127.273Z" fill="#1784F0"/>
<path d="M138.681 127.273H133.454V132.5H138.681V127.273Z" fill="#1D7CEC"/>
<path d="M144.955 127.273H139.728V132.5H144.955V127.273Z" fill="#2572E7"/>
<path d="M151.227 127.273H146V132.5H151.227V127.273Z" fill="#2275E9"/>
<path d="M157.5 127.273H152.272V132.5H157.5V127.273Z" fill="#02A0FE"/>
<path d="M163.772 127.273H158.545V132.5H163.772V127.273Z" fill="#138AF3"/>
<path d="M170.046 127.273H164.818V132.5H170.046V127.273Z" fill="#2571E7"/>
<path d="M176.318 127.273H171.091V132.5H176.318V127.273Z" fill="#1586F1"/>
<path d="M182.591 127.273H177.363V132.5H182.591V127.273Z" fill="#069AFB"/>
<path d="M188.864 127.273H183.637V132.5H188.864V127.273Z" fill="#1D7CEC"/>
<path d="M195.136 127.273H189.909V132.5H195.136V127.273Z" fill="#1E7AEB"/>
<path d="M13.2273 133.545H8V138.773H13.2273V133.545Z" fill="#01A1FE"/>
<path d="M19.5 133.545H14.2727V138.773H19.5V133.545Z" fill="#1982EF"/>
<path d="M25.7727 133.545H20.5454V138.773H25.7727V133.545Z" fill="#0899FA"/>
<path d="M32.0456 133.545H26.8184V138.773H32.0456V133.545Z" fill="#1E7BEC"/>
<path d="M38.3181 133.545H33.0908V138.773H38.3181V133.545Z" fill="#1784F0"/>
<path d="M44.5906 133.545H39.3633V138.773H44.5906V133.545Z" fill="#1D7CEC"/>
<path d="M50.864 133.545H45.6367V138.773H50.864V133.545Z" fill="#02A1FE"/>
<path d="M57.1365 133.545H51.9092V138.773H57.1365V133.545Z" fill="#0D92F7"/>
<path d="M63.4089 133.545H58.1816V138.773H63.4089V133.545Z" fill="#049EFD"/>
<path d="M69.6814 133.545H64.4541V138.773H69.6814V133.545Z" fill="#1488F2"/>
<path d="M75.9548 133.545H70.7275V138.773H75.9548V133.545Z" fill="#1982EF"/>
<path d="M82.2273 133.545H77V138.773H82.2273V133.545Z" fill="#2079EA"/>
<path d="M88.4997 133.545H83.2725V138.773H88.4997V133.545Z" fill="#2177E9"/>
<path d="M94.7722 133.545H89.5449V138.773H94.7722V133.545Z" fill="#1981EF"/>
<path d="M101.046 133.545H95.8184V138.773H101.046V133.545Z" fill="#079AFB"/>
<path d="M107.318 133.545H102.091V138.773H107.318V133.545Z" fill="#2670E6"/>
<path d="M113.591 133.545H108.363V138.773H113.591V133.545Z" fill="#1A80EE"/>
<path d="M119.864 133.545H114.637V138.773H119.864V133.545Z" fill="#0898FA"/>
<path d="M126.136 133.545H120.909V138.773H126.136V133.545Z" fill="#128BF3"/>
<path d="M132.409 133.545H127.182V138.773H132.409V133.545Z" fill="#01A1FE"/>
<path d="M138.681 133.545H133.454V138.773H138.681V133.545Z" fill="#0D92F7"/>
<path d="M144.955 133.545H139.728V138.773H144.955V133.545Z" fill="#1C7EED"/>
<path d="M151.227 133.545H146V138.773H151.227V133.545Z" fill="#069AFB"/>
<path d="M157.5 133.545H152.272V138.773H157.5V133.545Z" fill="#1F7AEB"/>
<path d="M163.772 133.545H158.545V138.773H163.772V133.545Z" fill="#0899FA"/>
<path d="M170.046 133.545H164.818V138.773H170.046V133.545Z" fill="#1F79EB"/>
<path d="M176.318 133.545H171.091V138.773H176.318V133.545Z" fill="#108DF4"/>
<path d="M182.591 133.545H177.363V138.773H182.591V133.545Z" fill="#1883EF"/>
<path d="M188.864 133.545H183.637V138.773H188.864V133.545Z" fill="#079AFB"/>
<path d="M195.136 133.545H189.909V138.773H195.136V133.545Z" fill="#0899FA"/>
<path d="M19.5 139.818H14.2727V145.045H19.5V139.818Z" fill="#039EFD"/>
<path d="M25.7727 139.818H20.5454V145.045H25.7727V139.818Z" fill="#1D7CEC"/>
<path d="M32.0456 139.818H26.8184V145.045H32.0456V139.818Z" fill="#1883EF"/>
<path d="M38.3181 139.818H33.0908V145.045H38.3181V139.818Z" fill="#01A1FE"/>
<path d="M44.5906 139.818H39.3633V145.045H44.5906V139.818Z" fill="#1685F0"/>
<path d="M50.864 139.818H45.6367V145.045H50.864V139.818Z" fill="#059CFC"/>
<path d="M57.1365 139.818H51.9092V145.045H57.1365V139.818Z" fill="#1882EF"/>
<path d="M63.4089 139.818H58.1816V145.045H63.4089V139.818Z" fill="#0899FA"/>
<path d="M69.6814 139.818H64.4541V145.045H69.6814V139.818Z" fill="#2670E6"/>
<path d="M75.9548 139.818H70.7275V145.045H75.9548V139.818Z" fill="#02A1FE"/>
<path d="M82.2273 139.818H77V145.045H82.2273V139.818Z" fill="#059DFC"/>
<path d="M88.4997 139.818H83.2725V145.045H88.4997V139.818Z" fill="#1B7FED"/>
<path d="M94.7722 139.818H89.5449V145.045H94.7722V139.818Z" fill="#2473E8"/>
<path d="M101.046 139.818H95.8184V145.045H101.046V139.818Z" fill="#2276E9"/>
<path d="M107.318 139.818H102.091V145.045H107.318V139.818Z" fill="#128BF3"/>
<path d="M113.591 139.818H108.363V145.045H113.591V139.818Z" fill="#049DFC"/>
<path d="M119.864 139.818H114.637V145.045H119.864V139.818Z" fill="#2472E7"/>
<path d="M126.136 139.818H120.909V145.045H126.136V139.818Z" fill="#0D92F7"/>
<path d="M132.409 139.818H127.182V145.045H132.409V139.818Z" fill="#1D7DEC"/>
<path d="M138.681 139.818H133.454V145.045H138.681V139.818Z" fill="#069BFB"/>
<path d="M144.955 139.818H139.728V145.045H144.955V139.818Z" fill="#02A0FE"/>
<path d="M151.227 139.818H146V145.045H151.227V139.818Z" fill="#0F8FF5"/>
<path d="M157.5 139.818H152.272V145.045H157.5V139.818Z" fill="#1F79EB"/>
<path d="M163.772 139.818H158.545V145.045H163.772V139.818Z" fill="#0F8FF5"/>
<path d="M170.046 139.818H164.818V145.045H170.046V139.818Z" fill="#0B95F8"/>
<path d="M176.318 139.818H171.091V145.045H176.318V139.818Z" fill="#039EFD"/>
<path d="M182.591 139.818H177.363V145.045H182.591V139.818Z" fill="#1488F2"/>
<path d="M188.864 139.818H183.637V145.045H188.864V139.818Z" fill="#1D7DEC"/>
<path d="M19.5 146.091H14.2727V151.318H19.5V146.091Z" fill="#2571E7"/>
<path d="M25.7727 146.091H20.5454V151.318H25.7727V146.091Z" fill="#1F79EB"/>
<path d="M32.0456 146.091H26.8184V151.318H32.0456V146.091Z" fill="#059CFC"/>
<path d="M38.3181 146.091H33.0908V151.318H38.3181V146.091Z" fill="#1883EF"/>
<path d="M44.5906 146.091H39.3633V151.318H44.5906V146.091Z" fill="#1883F0"/>
<path d="M50.864 146.091H45.6367V151.318H50.864V146.091Z" fill="#02A0FE"/>
<path d="M57.1365 146.091H51.9092V151.318H57.1365V146.091Z" fill="#1882EF"/>
<path d="M63.4089 146.091H58.1816V151.318H63.4089V146.091Z" fill="#2176E9"/>
<path d="M69.6814 146.091H64.4541V151.318H69.6814V146.091Z" fill="#2374E8"/>
<path d="M75.9548 146.091H70.7275V151.318H75.9548V146.091Z" fill="#0C93F7"/>
<path d="M82.2273 146.091H77V151.318H82.2273V146.091Z" fill="#2374E8"/>
<path d="M88.4997 146.091H83.2725V151.318H88.4997V146.091Z" fill="#0997F9"/>
<path d="M94.7722 146.091H89.5449V151.318H94.7722V146.091Z" fill="#059CFC"/>
<path d="M101.046 146.091H95.8184V151.318H101.046V146.091Z" fill="#138AF3"/>
<path d="M107.318 146.091H102.091V151.318H107.318V146.091Z" fill="#1F79EB"/>
<path d="M113.591 146.091H108.363V151.318H113.591V146.091Z" fill="#1981EF"/>
<path d="M119.864 146.091H114.637V151.318H119.864V146.091Z" fill="#0C93F7"/>
<path d="M126.136 146.091H120.909V151.318H126.136V146.091Z" fill="#0F8FF5"/>
<path d="M132.409 146.091H127.182V151.318H132.409V146.091Z" fill="#1B7FEE"/>
<path d="M138.681 146.091H133.454V151.318H138.681V146.091Z" fill="#049DFC"/>
<path d="M144.955 146.091H139.728V151.318H144.955V146.091Z" fill="#2473E7"/>
<path d="M151.227 146.091H146V151.318H151.227V146.091Z" fill="#118CF4"/>
<path d="M157.5 146.091H152.272V151.318H157.5V146.091Z" fill="#0799FA"/>
<path d="M163.772 146.091H158.545V151.318H163.772V146.091Z" fill="#1784F0"/>
<path d="M170.046 146.091H164.818V151.318H170.046V146.091Z" fill="#049EFD"/>
<path d="M176.318 146.091H171.091V151.318H176.318V146.091Z" fill="#0898FA"/>
<path d="M182.591 146.091H177.363V151.318H182.591V146.091Z" fill="#069BFB"/>
<path d="M188.864 146.091H183.637V151.318H188.864V146.091Z" fill="#0997F9"/>
<path d="M25.7727 152.364H20.5454V157.591H25.7727V152.364Z" fill="#0D92F7"/>
<path d="M32.0456 152.364H26.8184V157.591H32.0456V152.364Z" fill="#1981EE"/>
<path d="M38.3181 152.364H33.0908V157.591H38.3181V152.364Z" fill="#0E90F6"/>
<path d="M44.5906 152.364H39.3633V157.591H44.5906V152.364Z" fill="#059CFC"/>
<path d="M50.864 152.364H45.6367V157.591H50.864V152.364Z" fill="#1686F1"/>
<path d="M57.1365 152.364H51.9092V157.591H57.1365V152.364Z" fill="#2671E6"/>
<path d="M63.4089 152.364H58.1816V157.591H63.4089V152.364Z" fill="#1587F2"/>
<path d="M69.6814 152.364H64.4541V157.591H69.6814V152.364Z" fill="#079AFB"/>
<path d="M75.9548 152.364H70.7275V157.591H75.9548V152.364Z" fill="#079AFB"/>
<path d="M82.2273 152.364H77V157.591H82.2273V152.364Z" fill="#1A80EE"/>
<path d="M88.4997 152.364H83.2725V157.591H88.4997V152.364Z" fill="#01A1FE"/>
<path d="M94.7722 152.364H89.5449V157.591H94.7722V152.364Z" fill="#1F7AEB"/>
<path d="M101.046 152.364H95.8184V157.591H101.046V152.364Z" fill="#1F79EB"/>
<path d="M107.318 152.364H102.091V157.591H107.318V152.364Z" fill="#2177EA"/>
<path d="M113.591 152.364H108.363V157.591H113.591V152.364Z" fill="#2473E7"/>
<path d="M119.864 152.364H114.637V157.591H119.864V152.364Z" fill="#2177EA"/>
<path d="M126.136 152.364H120.909V157.591H126.136V152.364Z" fill="#1D7DEC"/>
<path d="M132.409 152.364H127.182V157.591H132.409V152.364Z" fill="#1B7FEE"/>
<path d="M138.681 152.364H133.454V157.591H138.681V152.364Z" fill="#2177E9"/>
<path d="M144.955 152.364H139.728V157.591H144.955V152.364Z" fill="#02A0FE"/>
<path d="M151.227 152.364H146V157.591H151.227V152.364Z" fill="#069BFB"/>
<path d="M157.5 152.364H152.272V157.591H157.5V152.364Z" fill="#118DF4"/>
<path d="M163.772 152.364H158.545V157.591H163.772V152.364Z" fill="#0A95F8"/>
<path d="M170.046 152.364H164.818V157.591H170.046V152.364Z" fill="#2177E9"/>
<path d="M176.318 152.364H171.091V157.591H176.318V152.364Z" fill="#1D7CEC"/>
<path d="M182.591 152.364H177.363V157.591H182.591V152.364Z" fill="#049DFC"/>
<path d="M32.0456 158.636H26.8184V163.864H32.0456V158.636Z" fill="#0F8FF5"/>
<path d="M38.3181 158.636H33.0908V163.864H38.3181V158.636Z" fill="#069BFB"/>
<path d="M44.5906 158.636H39.3633V163.864H44.5906V158.636Z" fill="#1488F2"/>
<path d="M50.864 158.636H45.6367V163.864H50.864V158.636Z" fill="#2176E9"/>
<path d="M57.1365 158.636H51.9092V163.864H57.1365V158.636Z" fill="#039FFD"/>
<path d="M63.4089 158.636H58.1816V163.864H63.4089V158.636Z" fill="#1C7EED"/>
<path d="M69.6814 158.636H64.4541V163.864H69.6814V158.636Z" fill="#059CFC"/>
<path d="M75.9548 158.636H70.7275V163.864H75.9548V158.636Z" fill="#1981EE"/>
<path d="M82.2273 158.636H77V163.864H82.2273V158.636Z" fill="#1587F1"/>
<path d="M88.4997 158.636H83.2725V163.864H88.4997V158.636Z" fill="#1B7EED"/>
<path d="M94.7722 158.636H89.5449V163.864H94.7722V158.636Z" fill="#1883F0"/>
<path d="M101.046 158.636H95.8184V163.864H101.046V158.636Z" fill="#2079EA"/>
<path d="M107.318 158.636H102.091V163.864H107.318V158.636Z" fill="#01A1FE"/>
<path d="M113.591 158.636H108.363V163.864H113.591V158.636Z" fill="#1E7BEC"/>
<path d="M119.864 158.636H114.637V163.864H119.864V158.636Z" fill="#049DFC"/>
<path d="M126.136 158.636H120.909V163.864H126.136V158.636Z" fill="#1B7EED"/>
<path d="M132.409 158.636H127.182V163.864H132.409V158.636Z" fill="#1B7FED"/>
<path d="M138.681 158.636H133.454V163.864H138.681V158.636Z" fill="#049EFD"/>
<path d="M144.955 158.636H139.728V163.864H144.955V158.636Z" fill="#0A96F9"/>
<path d="M151.227 158.636H146V163.864H151.227V158.636Z" fill="#128BF3"/>
<path d="M157.5 158.636H152.272V163.864H157.5V158.636Z" fill="#1981EE"/>
<path d="M163.772 158.636H158.545V163.864H163.772V158.636Z" fill="#059CFC"/>
<path d="M170.046 158.636H164.818V163.864H170.046V158.636Z" fill="#1D7CEC"/>
<path d="M176.318 158.636H171.091V163.864H176.318V158.636Z" fill="#0E91F6"/>
<path d="M38.3181 164.909H33.0908V170.136H38.3181V164.909Z" fill="#0D92F7"/>
<path d="M44.5906 164.909H39.3633V170.136H44.5906V164.909Z" fill="#0C93F7"/>
<path d="M50.864 164.909H45.6367V170.136H50.864V164.909Z" fill="#059DFC"/>
<path d="M57.1365 164.909H51.9092V170.136H57.1365V164.909Z" fill="#2176E9"/>
<path d="M63.4089 164.909H58.1816V170.136H63.4089V164.909Z" fill="#069BFB"/>
<path d="M69.6814 164.909H64.4541V170.136H69.6814V164.909Z" fill="#039EFD"/>
<path d="M75.9548 164.909H70.7275V170.136H75.9548V164.909Z" fill="#069AFB"/>
<path d="M82.2273 164.909H77V170.136H82.2273V164.909Z" fill="#069AFB"/>
<path d="M88.4997 164.909H83.2725V170.136H88.4997V164.909Z" fill="#00A3FF"/>
<path d="M94.7722 164.909H89.5449V170.136H94.7722V164.909Z" fill="#2571E7"/>
<path d="M101.046 164.909H95.8184V170.136H101.046V164.909Z" fill="#2176E9"/>
<path d="M107.318 164.909H102.091V170.136H107.318V164.909Z" fill="#039FFD"/>
<path d="M113.591 164.909H108.363V170.136H113.591V164.909Z" fill="#01A2FF"/>
<path d="M119.864 164.909H114.637V170.136H119.864V164.909Z" fill="#0E90F6"/>
<path d="M126.136 164.909H120.909V170.136H126.136V164.909Z" fill="#2473E7"/>
<path d="M132.409 164.909H127.182V170.136H132.409V164.909Z" fill="#0799FA"/>
<path d="M138.681 164.909H133.454V170.136H138.681V164.909Z" fill="#118CF4"/>
<path d="M144.955 164.909H139.728V170.136H144.955V164.909Z" fill="#0B94F8"/>
<path d="M151.227 164.909H146V170.136H151.227V164.909Z" fill="#0997F9"/>
<path d="M157.5 164.909H152.272V170.136H157.5V164.909Z" fill="#0997F9"/>
<path d="M163.772 164.909H158.545V170.136H163.772V164.909Z" fill="#079AFB"/>
<path d="M170.046 164.909H164.818V170.136H170.046V164.909Z" fill="#2276E9"/>
<path d="M44.5906 171.182H39.3633V176.409H44.5906V171.182Z" fill="#0A95F8"/>
<path d="M50.864 171.182H45.6367V176.409H50.864V171.182Z" fill="#118CF4"/>
<path d="M57.1365 171.182H51.9092V176.409H57.1365V171.182Z" fill="#0B95F8"/>
<path d="M63.4089 171.182H58.1816V176.409H63.4089V171.182Z" fill="#2375E8"/>
<path d="M69.6814 171.182H64.4541V176.409H69.6814V171.182Z" fill="#2276E9"/>
<path d="M75.9548 171.182H70.7275V176.409H75.9548V171.182Z" fill="#0F8FF5"/>
<path d="M82.2273 171.182H77V176.409H82.2273V171.182Z" fill="#2671E6"/>
<path d="M88.4997 171.182H83.2725V176.409H88.4997V171.182Z" fill="#1488F2"/>
<path d="M94.7722 171.182H89.5449V176.409H94.7722V171.182Z" fill="#0D92F7"/>
<path d="M101.046 171.182H95.8184V176.409H101.046V171.182Z" fill="#2571E7"/>
<path d="M107.318 171.182H102.091V176.409H107.318V171.182Z" fill="#118CF4"/>
<path d="M113.591 171.182H108.363V176.409H113.591V171.182Z" fill="#1A80EE"/>
<path d="M119.864 171.182H114.637V176.409H119.864V171.182Z" fill="#118CF4"/>
<path d="M126.136 171.182H120.909V176.409H126.136V171.182Z" fill="#0B94F8"/>
<path d="M132.409 171.182H127.182V176.409H132.409V171.182Z" fill="#108EF5"/>
<path d="M138.681 171.182H133.454V176.409H138.681V171.182Z" fill="#1982EF"/>
<path d="M144.955 171.182H139.728V176.409H144.955V171.182Z" fill="#0D92F7"/>
<path d="M151.227 171.182H146V176.409H151.227V171.182Z" fill="#1488F2"/>
<path d="M157.5 171.182H152.272V176.409H157.5V171.182Z" fill="#1784F0"/>
<path d="M163.772 171.182H158.545V176.409H163.772V171.182Z" fill="#108EF5"/>
<path d="M50.864 177.455H45.6367V182.682H50.864V177.455Z" fill="#118CF4"/>
<path d="M57.1365 177.455H51.9092V182.682H57.1365V177.455Z" fill="#1982EF"/>
<path d="M63.4089 177.455H58.1816V182.682H63.4089V177.455Z" fill="#0A96F9"/>
<path d="M69.6814 177.455H64.4541V182.682H69.6814V177.455Z" fill="#0D92F7"/>
<path d="M75.9548 177.455H70.7275V182.682H75.9548V177.455Z" fill="#0F8FF5"/>
<path d="M82.2273 177.455H77V182.682H82.2273V177.455Z" fill="#0F8FF5"/>
<path d="M88.4997 177.455H83.2725V182.682H88.4997V177.455Z" fill="#2670E6"/>
<path d="M94.7722 177.455H89.5449V182.682H94.7722V177.455Z" fill="#0A96F9"/>
<path d="M101.046 177.455H95.8184V182.682H101.046V177.455Z" fill="#039FFD"/>
<path d="M107.318 177.455H102.091V182.682H107.318V177.455Z" fill="#1685F1"/>
<path d="M113.591 177.455H108.363V182.682H113.591V177.455Z" fill="#02A0FE"/>
<path d="M119.864 177.455H114.637V182.682H119.864V177.455Z" fill="#138AF3"/>
<path d="M126.136 177.455H120.909V182.682H126.136V177.455Z" fill="#2473E7"/>
<path d="M132.409 177.455H127.182V182.682H132.409V177.455Z" fill="#059CFC"/>
<path d="M138.681 177.455H133.454V182.682H138.681V177.455Z" fill="#2177EA"/>
<path d="M144.955 177.455H139.728V182.682H144.955V177.455Z" fill="#039FFD"/>
<path d="M151.227 177.455H146V182.682H151.227V177.455Z" fill="#2473E7"/>
<path d="M157.5 177.455H152.272V182.682H157.5V177.455Z" fill="#1784F0"/>
<path d="M63.4089 183.727H58.1816V188.955H63.4089V183.727Z" fill="#1882EF"/>
<path d="M69.6814 183.727H64.4541V188.955H69.6814V183.727Z" fill="#0C93F7"/>
<path d="M75.9548 183.727H70.7275V188.955H75.9548V183.727Z" fill="#1882EF"/>
<path d="M82.2273 183.727H77V188.955H82.2273V183.727Z" fill="#059CFC"/>
<path d="M88.4997 183.727H83.2725V188.955H88.4997V183.727Z" fill="#02A1FE"/>
<path d="M94.7722 183.727H89.5449V188.955H94.7722V183.727Z" fill="#1883EF"/>
<path d="M101.046 183.727H95.8184V188.955H101.046V183.727Z" fill="#1E7BEB"/>
<path d="M107.318 183.727H102.091V188.955H107.318V183.727Z" fill="#1C7EED"/>
<path d="M113.591 183.727H108.363V188.955H113.591V183.727Z" fill="#2473E8"/>
<path d="M119.864 183.727H114.637V188.955H119.864V183.727Z" fill="#0E91F6"/>
<path d="M126.136 183.727H120.909V188.955H126.136V183.727Z" fill="#1D7DEC"/>
<path d="M132.409 183.727H127.182V188.955H132.409V183.727Z" fill="#138AF3"/>
<path d="M138.681 183.727H133.454V188.955H138.681V183.727Z" fill="#2375E8"/>
<path d="M144.955 183.727H139.728V188.955H144.955V183.727Z" fill="#1D7CEC"/>
<path d="M82.2273 190H77V195.227H82.2273V190Z" fill="#2670E6"/>
<path d="M88.4997 190H83.2725V195.227H88.4997V190Z" fill="#1F79EB"/>
<path d="M94.7722 190H89.5449V195.227H94.7722V190Z" fill="#1B7FED"/>
<path d="M101.046 190H95.8184V195.227H101.046V190Z" fill="#1E7AEB"/>
<path d="M107.318 190H102.091V195.227H107.318V190Z" fill="#0B94F8"/>
<path d="M113.591 190H108.363V195.227H113.591V190Z" fill="#1488F2"/>
<path d="M119.864 190H114.637V195.227H119.864V190Z" fill="#108DF4"/>
<path d="M126.136 190H120.909V195.227H126.136V190Z" fill="#1784F0"/>
<path d="M7.969 112V89.3455H16.9069C18.6252 89.3455 20.089 89.6736 21.2985 90.33C22.5079 90.9789 23.4297 91.8823 24.0639 93.0401C24.7055 94.1905 25.0263 95.5179 25.0263 97.0223C25.0263 98.5267 24.7018 99.8542 24.0528 101.005C23.4039 102.155 22.4636 103.051 21.2321 103.693C20.0079 104.334 18.5256 104.655 16.7852 104.655H11.0884V100.817H16.0109C16.9327 100.817 17.6923 100.658 18.2896 100.341C18.8944 100.016 19.3442 99.5702 19.6392 99.0024C19.9415 98.4272 20.0927 97.7672 20.0927 97.0223C20.0927 96.2701 19.9415 95.6138 19.6392 95.0533C19.3442 94.4855 18.8944 94.0467 18.2896 93.737C17.6849 93.4199 16.918 93.2613 15.9888 93.2613H12.7588V112H7.969ZM32.9272 89.3455V112H28.1374V89.3455H32.9272ZM41.359 89.3455L45.9275 97.0666H46.1045L50.6952 89.3455H56.1044L49.1908 100.673L56.2592 112H50.7505L46.1045 104.268H45.9275L41.2816 112H35.7949L42.8855 100.673L35.9277 89.3455H41.359ZM59.1353 112V89.3455H74.4006V93.2945H63.9251V98.6927H73.6152V102.642H63.9251V108.051H74.4448V112H59.1353ZM78.2086 112V89.3455H82.9983V108.051H92.7106V112H78.2086ZM92.1907 93.2945V89.3455H110.797V93.2945H103.861V112H99.1264V93.2945H92.1907ZM113.861 112V89.3455H122.799C124.51 89.3455 125.97 89.6515 127.179 90.2636C128.396 90.8683 129.321 91.7274 129.956 92.841C130.597 93.9472 130.918 95.2488 130.918 96.7458C130.918 98.2502 130.594 99.5444 129.945 100.628C129.296 101.705 128.355 102.531 127.124 103.106C125.9 103.682 124.417 103.969 122.677 103.969H116.693V100.12H121.903C122.817 100.12 123.577 99.9943 124.181 99.7435C124.786 99.4928 125.236 99.1167 125.531 98.6152C125.833 98.1138 125.984 97.4906 125.984 96.7458C125.984 95.9936 125.833 95.3594 125.531 94.8432C125.236 94.3269 124.782 93.9361 124.17 93.6706C123.566 93.3978 122.802 93.2613 121.881 93.2613H118.651V112H113.861ZM126.095 101.69L131.726 112H126.438L120.929 101.69H126.095ZM148.296 89.3455H153.086V104.058C153.086 105.71 152.691 107.155 151.902 108.394C151.121 109.633 150.025 110.599 148.617 111.292C147.208 111.978 145.568 112.321 143.694 112.321C141.814 112.321 140.169 111.978 138.761 111.292C137.352 110.599 136.257 109.633 135.475 108.394C134.694 107.155 134.303 105.71 134.303 104.058V89.3455H139.093V103.648C139.093 104.511 139.281 105.278 139.657 105.949C140.04 106.62 140.579 107.148 141.272 107.531C141.965 107.915 142.773 108.106 143.694 108.106C144.624 108.106 145.431 107.915 146.117 107.531C146.81 107.148 147.345 106.62 147.721 105.949C148.104 105.278 148.296 104.511 148.296 103.648V89.3455ZM169.316 95.8608C169.228 94.9685 168.848 94.2753 168.177 93.7812C167.506 93.2871 166.595 93.0401 165.445 93.0401C164.663 93.0401 164.003 93.1507 163.465 93.3719C162.926 93.5858 162.513 93.8845 162.226 94.268C161.945 94.6514 161.805 95.0865 161.805 95.5732C161.791 95.9788 161.875 96.3328 162.06 96.6352C162.251 96.9375 162.513 97.1993 162.845 97.4206C163.177 97.6344 163.56 97.8225 163.996 97.9847C164.431 98.1396 164.895 98.2723 165.389 98.3829L167.425 98.8697C168.413 99.0909 169.32 99.3859 170.146 99.7546C170.972 100.123 171.687 100.577 172.292 101.115C172.897 101.654 173.365 102.288 173.697 103.018C174.036 103.748 174.209 104.585 174.217 105.529C174.209 106.915 173.855 108.117 173.155 109.135C172.462 110.145 171.459 110.931 170.146 111.491C168.841 112.044 167.266 112.321 165.423 112.321C163.594 112.321 162.001 112.041 160.644 111.48C159.294 110.92 158.24 110.09 157.48 108.991C156.728 107.885 156.333 106.517 156.297 104.887H160.931C160.983 105.647 161.201 106.281 161.584 106.79C161.975 107.291 162.495 107.671 163.144 107.929C163.8 108.18 164.541 108.305 165.367 108.305C166.178 108.305 166.883 108.187 167.48 107.951C168.085 107.715 168.553 107.387 168.885 106.967C169.217 106.547 169.383 106.064 169.383 105.518C169.383 105.009 169.231 104.581 168.929 104.235C168.634 103.888 168.199 103.593 167.624 103.35C167.056 103.106 166.359 102.885 165.533 102.686L163.066 102.067C161.156 101.602 159.648 100.876 158.542 99.8873C157.436 98.8992 156.886 97.5681 156.894 95.894C156.886 94.5224 157.252 93.324 157.989 92.299C158.734 91.2739 159.755 90.4738 161.053 89.8985C162.351 89.3233 163.826 89.0357 165.478 89.0357C167.159 89.0357 168.627 89.3233 169.88 89.8985C171.141 90.4738 172.122 91.2739 172.823 92.299C173.523 93.324 173.885 94.5113 173.907 95.8608H169.316ZM176.576 93.2945V89.3455H195.181V93.2945H188.246V112H183.511V93.2945H176.576Z" fill="#113A51"/>
<path d="M82.2273 8H77V13.2273H82.2273V8Z" fill="#108EF5"/>
<path d="M88.4997 8H83.2725V13.2273H88.4997V8Z" fill="#0997F9"/>
<path d="M94.7722 8H89.5449V13.2273H94.7722V8Z" fill="#1586F1"/>
<path d="M101.046 8H95.8184V13.2273H101.046V8Z" fill="#2670E6"/>
<path d="M107.318 8H102.091V13.2273H107.318V8Z" fill="#2079EA"/>
<path d="M113.591 8H108.363V13.2273H113.591V8Z" fill="#1488F2"/>
<path d="M119.864 8H114.637V13.2273H119.864V8Z" fill="#0997F9"/>
<path d="M126.136 8H120.909V13.2273H126.136V8Z" fill="#0898FA"/>
<path d="M63.4089 14H58.1816V19.2273H63.4089V14Z" fill="#138AF3"/>
<path d="M69.6814 14H64.4541V19.2273H69.6814V14Z" fill="#069AFB"/>
<path d="M75.9548 14H70.7275V19.2273H75.9548V14Z" fill="#0D92F7"/>
<path d="M82.2273 14H77V19.2273H82.2273V14Z" fill="#0997F9"/>
<path d="M88.4997 14H83.2725V19.2273H88.4997V14Z" fill="#2473E7"/>
<path d="M94.7722 14H89.5449V19.2273H94.7722V14Z" fill="#1A80EE"/>
<path d="M101.046 14H95.8184V19.2273H101.046V14Z" fill="#0899FA"/>
<path d="M107.318 14H102.091V19.2273H107.318V14Z" fill="#0B94F8"/>
<path d="M113.591 14H108.363V19.2273H113.591V14Z" fill="#1587F1"/>
<path d="M119.864 14H114.637V19.2273H119.864V14Z" fill="#0997F9"/>
<path d="M126.136 14H120.909V19.2273H126.136V14Z" fill="#1A80EE"/>
<path d="M132.409 14H127.182V19.2273H132.409V14Z" fill="#059DFC"/>
<path d="M138.681 14H133.454V19.2273H138.681V14Z" fill="#059DFC"/>
<path d="M144.955 14H139.728V19.2273H144.955V14Z" fill="#1981EF"/>
<path d="M50.864 20H45.6367V25.2273H50.864V20Z" fill="#0A96F9"/>
<path d="M57.1365 20H51.9092V25.2273H57.1365V20Z" fill="#0A95F8"/>
<path d="M63.4089 20H58.1816V25.2273H63.4089V20Z" fill="#00A2FF"/>
<path d="M69.6814 20H64.4541V25.2273H69.6814V20Z" fill="#0B94F8"/>
<path d="M75.9548 20H70.7275V25.2273H75.9548V20Z" fill="#1B7EED"/>
<path d="M82.2273 20H77V25.2273H82.2273V20Z" fill="#2079EA"/>
<path d="M88.4997 20H83.2725V25.2273H88.4997V20Z" fill="#1F7AEB"/>
<path d="M94.7722 20H89.5449V25.2273H94.7722V20Z" fill="#2571E7"/>
<path d="M101.046 20H95.8184V25.2273H101.046V20Z" fill="#0E90F6"/>
<path d="M107.318 20H102.091V25.2273H107.318V20Z" fill="#00A2FF"/>
<path d="M113.591 20H108.363V25.2273H113.591V20Z" fill="#1982EF"/>
<path d="M119.864 20H114.637V25.2273H119.864V20Z" fill="#0B95F8"/>
<path d="M126.136 20H120.909V25.2273H126.136V20Z" fill="#0B94F8"/>
<path d="M132.409 20H127.182V25.2273H132.409V20Z" fill="#2177EA"/>
<path d="M138.681 20H133.454V25.2273H138.681V20Z" fill="#039FFD"/>
<path d="M144.955 20H139.728V25.2273H144.955V20Z" fill="#1883EF"/>
<path d="M151.227 20H146V25.2273H151.227V20Z" fill="#1C7EED"/>
<path d="M157.5 20H152.272V25.2273H157.5V20Z" fill="#0E90F6"/>
<path d="M44.5906 26H39.3633V31.2273H44.5906V26Z" fill="#118DF4"/>
<path d="M50.864 26H45.6367V31.2273H50.864V26Z" fill="#2670E6"/>
<path d="M57.1365 26H51.9092V31.2273H57.1365V26Z" fill="#1981EE"/>
<path d="M63.4089 26H58.1816V31.2273H63.4089V26Z" fill="#108EF5"/>
<path d="M69.6814 26H64.4541V31.2273H69.6814V26Z" fill="#0B94F8"/>
<path d="M75.9548 26H70.7275V31.2273H75.9548V26Z" fill="#0997F9"/>
<path d="M82.2273 26H77V31.2273H82.2273V26Z" fill="#0A95F8"/>
<path d="M88.4997 26H83.2725V31.2273H88.4997V26Z" fill="#0E90F6"/>
<path d="M94.7722 26H89.5449V31.2273H94.7722V26Z" fill="#0B95F8"/>
<path d="M101.046 26H95.8184V31.2273H101.046V26Z" fill="#0F8FF5"/>
<path d="M107.318 26H102.091V31.2273H107.318V26Z" fill="#1883F0"/>
<path d="M113.591 26H108.363V31.2273H113.591V26Z" fill="#039EFD"/>
<path d="M119.864 26H114.637V31.2273H119.864V26Z" fill="#1488F2"/>
<path d="M126.136 26H120.909V31.2273H126.136V26Z" fill="#2374E8"/>
<path d="M132.409 26H127.182V31.2273H132.409V26Z" fill="#0E90F6"/>
<path d="M138.681 26H133.454V31.2273H138.681V26Z" fill="#1685F0"/>
<path d="M144.955 26H139.728V31.2273H144.955V26Z" fill="#02A1FE"/>
<path d="M151.227 26H146V31.2273H151.227V26Z" fill="#2375E8"/>
<path d="M157.5 26H152.272V31.2273H157.5V26Z" fill="#1B7EED"/>
<path d="M163.772 26H158.545V31.2273H163.772V26Z" fill="#059CFC"/>
<path d="M38.3181 32H33.0908V37.2273H38.3181V32Z" fill="#2374E8"/>
<path d="M44.5906 32H39.3633V37.2273H44.5906V32Z" fill="#1685F0"/>
<path d="M50.864 32H45.6367V37.2273H50.864V32Z" fill="#0898FA"/>
<path d="M57.1365 32H51.9092V37.2273H57.1365V32Z" fill="#1E7BEC"/>
<path d="M63.4089 32H58.1816V37.2273H63.4089V32Z" fill="#039EFD"/>
<path d="M69.6814 32H64.4541V37.2273H69.6814V32Z" fill="#1685F0"/>
<path d="M75.9548 32H70.7275V37.2273H75.9548V32Z" fill="#1D7CEC"/>
<path d="M82.2273 32H77V37.2273H82.2273V32Z" fill="#1C7EED"/>
<path d="M88.4997 32H83.2725V37.2273H88.4997V32Z" fill="#069AFB"/>
<path d="M94.7722 32H89.5449V37.2273H94.7722V32Z" fill="#2671E6"/>
<path d="M101.046 32H95.8184V37.2273H101.046V32Z" fill="#2078EA"/>
<path d="M107.318 32H102.091V37.2273H107.318V32Z" fill="#2671E6"/>
<path d="M113.591 32H108.363V37.2273H113.591V32Z" fill="#0C93F7"/>
<path d="M119.864 32H114.637V37.2273H119.864V32Z" fill="#069BFB"/>
<path d="M126.136 32H120.909V37.2273H126.136V32Z" fill="#1C7DED"/>
<path d="M132.409 32H127.182V37.2273H132.409V32Z" fill="#1686F1"/>
<path d="M138.681 32H133.454V37.2273H138.681V32Z" fill="#2276E9"/>
<path d="M144.955 32H139.728V37.2273H144.955V32Z" fill="#1E7AEB"/>
<path d="M151.227 32H146V37.2273H151.227V32Z" fill="#2374E8"/>
<path d="M157.5 32H152.272V37.2273H157.5V32Z" fill="#2572E7"/>
<path d="M163.772 32H158.545V37.2273H163.772V32Z" fill="#1784F0"/>
<path d="M170.046 32H164.818V37.2273H170.046V32Z" fill="#2375E8"/>
<path d="M32.0456 38H26.8184V43.2273H32.0456V38Z" fill="#0A96F9"/>
<path d="M38.3181 38H33.0908V43.2273H38.3181V38Z" fill="#1883EF"/>
<path d="M44.5906 38H39.3633V43.2273H44.5906V38Z" fill="#0D91F6"/>
<path d="M50.864 38H45.6367V43.2273H50.864V38Z" fill="#1E7BEB"/>
<path d="M57.1365 38H51.9092V43.2273H57.1365V38Z" fill="#2078EA"/>
<path d="M63.4089 38H58.1816V43.2273H63.4089V38Z" fill="#2375E8"/>
<path d="M69.6814 38H64.4541V43.2273H69.6814V38Z" fill="#2572E7"/>
<path d="M75.9548 38H70.7275V43.2273H75.9548V38Z" fill="#0D92F7"/>
<path d="M82.2273 38H77V43.2273H82.2273V38Z" fill="#108EF5"/>
<path d="M88.4997 38H83.2725V43.2273H88.4997V38Z" fill="#1B7FED"/>
<path d="M94.7722 38H89.5449V43.2273H94.7722V38Z" fill="#1C7EED"/>
<path d="M101.046 38H95.8184V43.2273H101.046V38Z" fill="#1685F1"/>
<path d="M107.318 38H102.091V43.2273H107.318V38Z" fill="#1B7EED"/>
<path d="M113.591 38H108.363V43.2273H113.591V38Z" fill="#0B94F8"/>
<path d="M119.864 38H114.637V43.2273H119.864V38Z" fill="#2176E9"/>
<path d="M126.136 38H120.909V43.2273H126.136V38Z" fill="#0B95F8"/>
<path d="M132.409 38H127.182V43.2273H132.409V38Z" fill="#039FFD"/>
<path d="M138.681 38H133.454V43.2273H138.681V38Z" fill="#1587F1"/>
<path d="M144.955 38H139.728V43.2273H144.955V38Z" fill="#108DF4"/>
<path d="M151.227 38H146V43.2273H151.227V38Z" fill="#2078EA"/>
<path d="M157.5 38H152.272V43.2273H157.5V38Z" fill="#1D7DEC"/>
<path d="M163.772 38H158.545V43.2273H163.772V38Z" fill="#1883F0"/>
<path d="M170.046 38H164.818V43.2273H170.046V38Z" fill="#1C7DED"/>
<path d="M176.318 38H171.091V43.2273H176.318V38Z" fill="#0F8FF5"/>
<path d="M25.7727 44H20.5454V49.2273H25.7727V44Z" fill="#00A2FF"/>
<path d="M32.0456 44H26.8184V49.2273H32.0456V44Z" fill="#2472E7"/>
<path d="M38.3181 44H33.0908V49.2273H38.3181V44Z" fill="#2473E7"/>
<path d="M44.5906 44H39.3633V49.2273H44.5906V44Z" fill="#1982EF"/>
<path d="M50.864 44H45.6367V49.2273H50.864V44Z" fill="#2572E7"/>
<path d="M57.1365 44H51.9092V49.2273H57.1365V44Z" fill="#1B7EED"/>
<path d="M63.4089 44H58.1816V49.2273H63.4089V44Z" fill="#039EFD"/>
<path d="M69.6814 44H64.4541V49.2273H69.6814V44Z" fill="#0898FA"/>
<path d="M75.9548 44H70.7275V49.2273H75.9548V44Z" fill="#2374E8"/>
<path d="M82.2273 44H77V49.2273H82.2273V44Z" fill="#2374E8"/>
<path d="M88.4997 44H83.2725V49.2273H88.4997V44Z" fill="#2177E9"/>
<path d="M94.7722 44H89.5449V49.2273H94.7722V44Z" fill="#0E90F6"/>
<path d="M101.046 44H95.8184V49.2273H101.046V44Z" fill="#0997F9"/>
<path d="M107.318 44H102.091V49.2273H107.318V44Z" fill="#2079EA"/>
<path d="M113.591 44H108.363V49.2273H113.591V44Z" fill="#1A80EE"/>
<path d="M119.864 44H114.637V49.2273H119.864V44Z" fill="#1981EE"/>
<path d="M126.136 44H120.909V49.2273H126.136V44Z" fill="#1982EF"/>
<path d="M132.409 44H127.182V49.2273H132.409V44Z" fill="#128BF3"/>
<path d="M138.681 44H133.454V49.2273H138.681V44Z" fill="#1981EF"/>
<path d="M144.955 44H139.728V49.2273H144.955V44Z" fill="#1586F1"/>
<path d="M151.227 44H146V49.2273H151.227V44Z" fill="#2079EA"/>
<path d="M157.5 44H152.272V49.2273H157.5V44Z" fill="#1488F2"/>
<path d="M163.772 44H158.545V49.2273H163.772V44Z" fill="#1C7EED"/>
<path d="M170.046 44H164.818V49.2273H170.046V44Z" fill="#039EFD"/>
<path d="M176.318 44H171.091V49.2273H176.318V44Z" fill="#0899FA"/>
<path d="M182.591 44H177.363V49.2273H182.591V44Z" fill="#0B94F8"/>
<path d="M19.5 50H14.2727V55.2273H19.5V50Z" fill="#138AF3"/>
<path d="M25.7727 50H20.5454V55.2273H25.7727V50Z" fill="#138AF3"/>
<path d="M32.0456 50H26.8184V55.2273H32.0456V50Z" fill="#059CFC"/>
<path d="M38.3181 50H33.0908V55.2273H38.3181V50Z" fill="#0D91F6"/>
<path d="M44.5906 50H39.3633V55.2273H44.5906V50Z" fill="#0D91F6"/>
<path d="M50.864 50H45.6367V55.2273H50.864V50Z" fill="#1883F0"/>
<path d="M57.1365 50H51.9092V55.2273H57.1365V50Z" fill="#118CF4"/>
<path d="M63.4089 50H58.1816V55.2273H63.4089V50Z" fill="#02A0FE"/>
<path d="M69.6814 50H64.4541V55.2273H69.6814V50Z" fill="#0B94F8"/>
<path d="M75.9548 50H70.7275V55.2273H75.9548V50Z" fill="#1586F1"/>
<path d="M82.2273 50H77V55.2273H82.2273V50Z" fill="#1B7FEE"/>
<path d="M88.4997 50H83.2725V55.2273H88.4997V50Z" fill="#128BF3"/>
<path d="M94.7722 50H89.5449V55.2273H94.7722V50Z" fill="#118CF4"/>
<path d="M101.046 50H95.8184V55.2273H101.046V50Z" fill="#128BF3"/>
<path d="M107.318 50H102.091V55.2273H107.318V50Z" fill="#0C93F7"/>
<path d="M113.591 50H108.363V55.2273H113.591V50Z" fill="#059CFC"/>
<path d="M119.864 50H114.637V55.2273H119.864V50Z" fill="#108DF4"/>
<path d="M126.136 50H120.909V55.2273H126.136V50Z" fill="#02A0FE"/>
<path d="M132.409 50H127.182V55.2273H132.409V50Z" fill="#1883F0"/>
<path d="M138.681 50H133.454V55.2273H138.681V50Z" fill="#0F8FF5"/>
<path d="M144.955 50H139.728V55.2273H144.955V50Z" fill="#1784F0"/>
<path d="M151.227 50H146V55.2273H151.227V50Z" fill="#059CFC"/>
<path d="M157.5 50H152.272V55.2273H157.5V50Z" fill="#1D7CEC"/>
<path d="M163.772 50H158.545V55.2273H163.772V50Z" fill="#059CFC"/>
<path d="M170.046 50H164.818V55.2273H170.046V50Z" fill="#0C93F7"/>
<path d="M176.318 50H171.091V55.2273H176.318V50Z" fill="#0898FA"/>
<path d="M182.591 50H177.363V55.2273H182.591V50Z" fill="#1685F0"/>
<path d="M188.864 50H183.637V55.2273H188.864V50Z" fill="#1784F0"/>
<path d="M19.5 56H14.2727V61.2273H19.5V56Z" fill="#1E7AEB"/>
<path d="M25.7727 56H20.5454V61.2273H25.7727V56Z" fill="#1E7BEB"/>
<path d="M32.0456 56H26.8184V61.2273H32.0456V56Z" fill="#0898FA"/>
<path d="M38.3181 56H33.0908V61.2273H38.3181V56Z" fill="#079AFB"/>
<path d="M44.5906 56H39.3633V61.2273H44.5906V56Z" fill="#138AF3"/>
<path d="M50.864 56H45.6367V61.2273H50.864V56Z" fill="#00A3FF"/>
<path d="M57.1365 56H51.9092V61.2273H57.1365V56Z" fill="#118CF4"/>
<path d="M63.4089 56H58.1816V61.2273H63.4089V56Z" fill="#079AFB"/>
<path d="M69.6814 56H64.4541V61.2273H69.6814V56Z" fill="#0D92F7"/>
<path d="M75.9548 56H70.7275V61.2273H75.9548V56Z" fill="#1981EE"/>
<path d="M82.2273 56H77V61.2273H82.2273V56Z" fill="#1E7AEB"/>
<path d="M88.4997 56H83.2725V61.2273H88.4997V56Z" fill="#0A96F9"/>
<path d="M94.7722 56H89.5449V61.2273H94.7722V56Z" fill="#1E7BEB"/>
<path d="M101.046 56H95.8184V61.2273H101.046V56Z" fill="#138AF3"/>
<path d="M107.318 56H102.091V61.2273H107.318V56Z" fill="#1B7EED"/>
<path d="M113.591 56H108.363V61.2273H113.591V56Z" fill="#108DF4"/>
<path d="M119.864 56H114.637V61.2273H119.864V56Z" fill="#1B7EED"/>
<path d="M126.136 56H120.909V61.2273H126.136V56Z" fill="#0E90F6"/>
<path d="M132.409 56H127.182V61.2273H132.409V56Z" fill="#0997F9"/>
<path d="M138.681 56H133.454V61.2273H138.681V56Z" fill="#1981EE"/>
<path d="M144.955 56H139.728V61.2273H144.955V56Z" fill="#2275E9"/>
<path d="M151.227 56H146V61.2273H151.227V56Z" fill="#01A2FF"/>
<path d="M157.5 56H152.272V61.2273H157.5V56Z" fill="#2079EA"/>
<path d="M163.772 56H158.545V61.2273H163.772V56Z" fill="#118DF4"/>
<path d="M170.046 56H164.818V61.2273H170.046V56Z" fill="#059CFC"/>
<path d="M176.318 56H171.091V61.2273H176.318V56Z" fill="#1488F2"/>
<path d="M182.591 56H177.363V61.2273H182.591V56Z" fill="#0799FA"/>
<path d="M188.864 56H183.637V61.2273H188.864V56Z" fill="#1D7CEC"/>
<path d="M13.2273 62H8V67.2273H13.2273V62Z" fill="#0D92F7"/>
<path d="M19.5 62H14.2727V67.2273H19.5V62Z" fill="#1587F1"/>
<path d="M25.7727 62H20.5454V67.2273H25.7727V62Z" fill="#0799FA"/>
<path d="M32.0456 62H26.8184V67.2273H32.0456V62Z" fill="#0D92F7"/>
<path d="M38.3181 62H33.0908V67.2273H38.3181V62Z" fill="#0799FA"/>
<path d="M44.5906 62H39.3633V67.2273H44.5906V62Z" fill="#0898FA"/>
<path d="M50.864 62H45.6367V67.2273H50.864V62Z" fill="#118CF4"/>
<path d="M57.1365 62H51.9092V67.2273H57.1365V62Z" fill="#069AFB"/>
<path d="M63.4089 62H58.1816V67.2273H63.4089V62Z" fill="#0F8FF5"/>
<path d="M69.6814 62H64.4541V67.2273H69.6814V62Z" fill="#1981EE"/>
<path d="M75.9548 62H70.7275V67.2273H75.9548V62Z" fill="#039EFD"/>
<path d="M82.2273 62H77V67.2273H82.2273V62Z" fill="#1A80EE"/>
<path d="M88.4997 62H83.2725V67.2273H88.4997V62Z" fill="#108EF5"/>
<path d="M94.7722 62H89.5449V67.2273H94.7722V62Z" fill="#108DF4"/>
<path d="M101.046 62H95.8184V67.2273H101.046V62Z" fill="#118CF4"/>
<path d="M107.318 62H102.091V67.2273H107.318V62Z" fill="#118DF4"/>
<path d="M113.591 62H108.363V67.2273H113.591V62Z" fill="#00A3FF"/>
<path d="M119.864 62H114.637V67.2273H119.864V62Z" fill="#1488F2"/>
<path d="M126.136 62H120.909V67.2273H126.136V62Z" fill="#1E7BEB"/>
<path d="M132.409 62H127.182V67.2273H132.409V62Z" fill="#0A96F9"/>
<path d="M138.681 62H133.454V67.2273H138.681V62Z" fill="#1A80EE"/>
<path d="M144.955 62H139.728V67.2273H144.955V62Z" fill="#1686F1"/>
<path d="M151.227 62H146V67.2273H151.227V62Z" fill="#0F8FF5"/>
<path d="M157.5 62H152.272V67.2273H157.5V62Z" fill="#118CF4"/>
<path d="M163.772 62H158.545V67.2273H163.772V62Z" fill="#1784F0"/>
<path d="M170.046 62H164.818V67.2273H170.046V62Z" fill="#0898FA"/>
<path d="M176.318 62H171.091V67.2273H176.318V62Z" fill="#1E7BEC"/>
<path d="M182.591 62H177.363V67.2273H182.591V62Z" fill="#049DFC"/>
<path d="M188.864 62H183.637V67.2273H188.864V62Z" fill="#2473E8"/>
<path d="M195.136 62H189.909V67.2273H195.136V62Z" fill="#0898FA"/>
<path d="M13.2273 68H8V73.2273H13.2273V68Z" fill="#2571E7"/>
<path d="M19.5 68H14.2727V73.2273H19.5V68Z" fill="#108EF5"/>
<path d="M25.7727 68H20.5454V73.2273H25.7727V68Z" fill="#2276E9"/>
<path d="M32.0456 68H26.8184V73.2273H32.0456V68Z" fill="#0C93F7"/>
<path d="M38.3181 68H33.0908V73.2273H38.3181V68Z" fill="#0A95F8"/>
<path d="M44.5906 68H39.3633V73.2273H44.5906V68Z" fill="#049EFD"/>
<path d="M50.864 68H45.6367V73.2273H50.864V68Z" fill="#01A2FF"/>
<path d="M57.1365 68H51.9092V73.2273H57.1365V68Z" fill="#1E7AEB"/>
<path d="M63.4089 68H58.1816V73.2273H63.4089V68Z" fill="#049DFC"/>
<path d="M69.6814 68H64.4541V73.2273H69.6814V68Z" fill="#0997F9"/>
<path d="M75.9548 68H70.7275V73.2273H75.9548V68Z" fill="#2276E9"/>
<path d="M82.2273 68H77V73.2273H82.2273V68Z" fill="#1D7DEC"/>
<path d="M88.4997 68H83.2725V73.2273H88.4997V68Z" fill="#069AFB"/>
<path d="M94.7722 68H89.5449V73.2273H94.7722V68Z" fill="#2473E7"/>
<path d="M101.046 68H95.8184V73.2273H101.046V68Z" fill="#0997F9"/>
<path d="M107.318 68H102.091V73.2273H107.318V68Z" fill="#0E90F6"/>
<path d="M113.591 68H108.363V73.2273H113.591V68Z" fill="#0D92F7"/>
<path d="M119.864 68H114.637V73.2273H119.864V68Z" fill="#059CFC"/>
<path d="M126.136 68H120.909V73.2273H126.136V68Z" fill="#0F8FF5"/>
<path d="M132.409 68H127.182V73.2273H132.409V68Z" fill="#1B7FEE"/>
<path d="M138.681 68H133.454V73.2273H138.681V68Z" fill="#2176E9"/>
<path d="M144.955 68H139.728V73.2273H144.955V68Z" fill="#079AFB"/>
<path d="M151.227 68H146V73.2273H151.227V68Z" fill="#1E7AEB"/>
<path d="M157.5 68H152.272V73.2273H157.5V68Z" fill="#1F7AEB"/>
<path d="M163.772 68H158.545V73.2273H163.772V68Z" fill="#069BFB"/>
<path d="M170.046 68H164.818V73.2273H170.046V68Z" fill="#02A0FE"/>
<path d="M176.318 68H171.091V73.2273H176.318V68Z" fill="#1586F1"/>
<path d="M182.591 68H177.363V73.2273H182.591V68Z" fill="#00A3FF"/>
<path d="M188.864 68H183.637V73.2273H188.864V68Z" fill="#0B94F8"/>
<path d="M195.136 68H189.909V73.2273H195.136V68Z" fill="#2177EA"/>
<path d="M13.2273 74H8V79.2273H13.2273V74Z" fill="#1D7DEC"/>
<path d="M19.5 74H14.2727V79.2273H19.5V74Z" fill="#059DFC"/>
<path d="M25.7727 74H20.5454V79.2273H25.7727V74Z" fill="#1E7AEB"/>
<path d="M32.0456 74H26.8184V79.2273H32.0456V74Z" fill="#0898FA"/>
<path d="M38.3181 74H33.0908V79.2273H38.3181V74Z" fill="#2176E9"/>
<path d="M44.5906 74H39.3633V79.2273H44.5906V74Z" fill="#1B7EED"/>
<path d="M50.864 74H45.6367V79.2273H50.864V74Z" fill="#2177EA"/>
<path d="M57.1365 74H51.9092V79.2273H57.1365V74Z" fill="#0B94F8"/>
<path d="M63.4089 74H58.1816V79.2273H63.4089V74Z" fill="#0C93F7"/>
<path d="M69.6814 74H64.4541V79.2273H69.6814V74Z" fill="#1488F2"/>
<path d="M75.9548 74H70.7275V79.2273H75.9548V74Z" fill="#039EFD"/>
<path d="M82.2273 74H77V79.2273H82.2273V74Z" fill="#1389F2"/>
<path d="M88.4997 74H83.2725V79.2273H88.4997V74Z" fill="#0D92F7"/>
<path d="M94.7722 74H89.5449V79.2273H94.7722V74Z" fill="#1981EE"/>
<path d="M101.046 74H95.8184V79.2273H101.046V74Z" fill="#02A0FE"/>
<path d="M107.318 74H102.091V79.2273H107.318V74Z" fill="#00A3FF"/>
<path d="M113.591 74H108.363V79.2273H113.591V74Z" fill="#069AFB"/>
<path d="M119.864 74H114.637V79.2273H119.864V74Z" fill="#059DFC"/>
<path d="M126.136 74H120.909V79.2273H126.136V74Z" fill="#1F79EB"/>
<path d="M132.409 74H127.182V79.2273H132.409V74Z" fill="#2671E6"/>
<path d="M138.681 74H133.454V79.2273H138.681V74Z" fill="#01A2FF"/>
<path d="M144.955 74H139.728V79.2273H144.955V74Z" fill="#2572E7"/>
<path d="M151.227 74H146V79.2273H151.227V74Z" fill="#138AF3"/>
<path d="M157.5 74H152.272V79.2273H157.5V74Z" fill="#108DF4"/>
<path d="M163.772 74H158.545V79.2273H163.772V74Z" fill="#2177E9"/>
<path d="M170.046 74H164.818V79.2273H170.046V74Z" fill="#0D92F7"/>
<path d="M176.318 74H171.091V79.2273H176.318V74Z" fill="#0898FA"/>
<path d="M182.591 74H177.363V79.2273H182.591V74Z" fill="#01A1FE"/>
<path d="M188.864 74H183.637V79.2273H188.864V74Z" fill="#1784F0"/>
<path d="M195.136 74H189.909V79.2273H195.136V74Z" fill="#1883F0"/>
</svg>
