<svg width="220" height="220" viewBox="0 0 220 220" fill="none" xmlns="http://www.w3.org/2000/svg">
<rect width="220" height="220" rx="110" fill="#F1F1F1"/>
<g clip-path="url(#clip0_31_1395)">
<path d="M21.2273 129H16V134.227H21.2273V129Z" fill="#0F8FF5"/>
<path d="M27.5 129H22.2727V134.227H27.5V129Z" fill="#00A3FF"/>
<path d="M33.7727 129H28.5454V134.227H33.7727V129Z" fill="#0F8FF5"/>
<path d="M40.0456 129H34.8184V134.227H40.0456V129Z" fill="#0E91F6"/>
<path d="M46.3181 129H41.0908V134.227H46.3181V129Z" fill="#069AFB"/>
<path d="M52.5906 129H47.3633V134.227H52.5906V129Z" fill="#2176E9"/>
<path d="M58.864 129H53.6367V134.227H58.864V129Z" fill="#00A2FF"/>
<path d="M65.1365 129H59.9092V134.227H65.1365V129Z" fill="#1685F0"/>
<path d="M71.4089 129H66.1816V134.227H71.4089V129Z" fill="#059DFC"/>
<path d="M77.6814 129H72.4541V134.227H77.6814V129Z" fill="#1F79EB"/>
<path d="M83.9548 129H78.7275V134.227H83.9548V129Z" fill="#0997F9"/>
<path d="M90.2273 129H85V134.227H90.2273V129Z" fill="#0E90F6"/>
<path d="M96.4997 129H91.2725V134.227H96.4997V129Z" fill="#059CFC"/>
<path d="M102.772 129H97.5449V134.227H102.772V129Z" fill="#1784F0"/>
<path d="M109.046 129H103.818V134.227H109.046V129Z" fill="#1D7CEC"/>
<path d="M115.318 129H110.091V134.227H115.318V129Z" fill="#0D91F6"/>
<path d="M121.591 129H116.363V134.227H121.591V129Z" fill="#1F7AEB"/>
<path d="M127.864 129H122.637V134.227H127.864V129Z" fill="#1883F0"/>
<path d="M134.136 129H128.909V134.227H134.136V129Z" fill="#1882EF"/>
<path d="M140.409 129H135.182V134.227H140.409V129Z" fill="#118CF4"/>
<path d="M146.681 129H141.454V134.227H146.681V129Z" fill="#0A96F9"/>
<path d="M152.955 129H147.728V134.227H152.955V129Z" fill="#0E90F6"/>
<path d="M159.227 129H154V134.227H159.227V129Z" fill="#0B95F8"/>
<path d="M165.5 129H160.272V134.227H165.5V129Z" fill="#2079EA"/>
<path d="M171.772 129H166.545V134.227H171.772V129Z" fill="#2078EA"/>
<path d="M178.046 129H172.818V134.227H178.046V129Z" fill="#1C7EED"/>
<path d="M184.318 129H179.091V134.227H184.318V129Z" fill="#1784F0"/>
<path d="M190.591 129H185.363V134.227H190.591V129Z" fill="#0E91F6"/>
<path d="M196.864 129H191.637V134.227H196.864V129Z" fill="#0F8FF5"/>
<path d="M203.136 129H197.909V134.227H203.136V129Z" fill="#0A95F8"/>
<path d="M21.2273 135.273H16V140.5H21.2273V135.273Z" fill="#059CFC"/>
<path d="M27.5 135.273H22.2727V140.5H27.5V135.273Z" fill="#1B7EED"/>
<path d="M33.7727 135.273H28.5454V140.5H33.7727V135.273Z" fill="#1D7CEC"/>
<path d="M40.0456 135.273H34.8184V140.5H40.0456V135.273Z" fill="#2571E7"/>
<path d="M46.3181 135.273H41.0908V140.5H46.3181V135.273Z" fill="#049EFD"/>
<path d="M52.5906 135.273H47.3633V140.5H52.5906V135.273Z" fill="#2078EA"/>
<path d="M58.864 135.273H53.6367V140.5H58.864V135.273Z" fill="#1883F0"/>
<path d="M65.1365 135.273H59.9092V140.5H65.1365V135.273Z" fill="#2473E8"/>
<path d="M71.4089 135.273H66.1816V140.5H71.4089V135.273Z" fill="#049EFD"/>
<path d="M77.6814 135.273H72.4541V140.5H77.6814V135.273Z" fill="#0F8FF5"/>
<path d="M83.9548 135.273H78.7275V140.5H83.9548V135.273Z" fill="#039EFD"/>
<path d="M90.2273 135.273H85V140.5H90.2273V135.273Z" fill="#0E90F6"/>
<path d="M96.4997 135.273H91.2725V140.5H96.4997V135.273Z" fill="#2275E9"/>
<path d="M102.772 135.273H97.5449V140.5H102.772V135.273Z" fill="#138AF3"/>
<path d="M109.046 135.273H103.818V140.5H109.046V135.273Z" fill="#2375E8"/>
<path d="M115.318 135.273H110.091V140.5H115.318V135.273Z" fill="#0899FA"/>
<path d="M121.591 135.273H116.363V140.5H121.591V135.273Z" fill="#02A0FE"/>
<path d="M127.864 135.273H122.637V140.5H127.864V135.273Z" fill="#1587F2"/>
<path d="M134.136 135.273H128.909V140.5H134.136V135.273Z" fill="#128BF3"/>
<path d="M140.409 135.273H135.182V140.5H140.409V135.273Z" fill="#1784F0"/>
<path d="M146.681 135.273H141.454V140.5H146.681V135.273Z" fill="#1D7CEC"/>
<path d="M152.955 135.273H147.728V140.5H152.955V135.273Z" fill="#2572E7"/>
<path d="M159.227 135.273H154V140.5H159.227V135.273Z" fill="#2275E9"/>
<path d="M165.5 135.273H160.272V140.5H165.5V135.273Z" fill="#02A0FE"/>
<path d="M171.772 135.273H166.545V140.5H171.772V135.273Z" fill="#138AF3"/>
<path d="M178.046 135.273H172.818V140.5H178.046V135.273Z" fill="#2571E7"/>
<path d="M184.318 135.273H179.091V140.5H184.318V135.273Z" fill="#1586F1"/>
<path d="M190.591 135.273H185.363V140.5H190.591V135.273Z" fill="#069AFB"/>
<path d="M196.864 135.273H191.637V140.5H196.864V135.273Z" fill="#1D7CEC"/>
<path d="M203.136 135.273H197.909V140.5H203.136V135.273Z" fill="#1E7AEB"/>
<path d="M21.2273 141.545H16V146.773H21.2273V141.545Z" fill="#01A1FE"/>
<path d="M27.5 141.545H22.2727V146.773H27.5V141.545Z" fill="#1982EF"/>
<path d="M33.7727 141.545H28.5454V146.773H33.7727V141.545Z" fill="#0899FA"/>
<path d="M40.0456 141.545H34.8184V146.773H40.0456V141.545Z" fill="#1E7BEC"/>
<path d="M46.3181 141.545H41.0908V146.773H46.3181V141.545Z" fill="#1784F0"/>
<path d="M52.5906 141.545H47.3633V146.773H52.5906V141.545Z" fill="#1D7CEC"/>
<path d="M58.864 141.545H53.6367V146.773H58.864V141.545Z" fill="#02A1FE"/>
<path d="M65.1365 141.545H59.9092V146.773H65.1365V141.545Z" fill="#0D92F7"/>
<path d="M71.4089 141.545H66.1816V146.773H71.4089V141.545Z" fill="#049EFD"/>
<path d="M77.6814 141.545H72.4541V146.773H77.6814V141.545Z" fill="#1488F2"/>
<path d="M83.9548 141.545H78.7275V146.773H83.9548V141.545Z" fill="#1982EF"/>
<path d="M90.2273 141.545H85V146.773H90.2273V141.545Z" fill="#2079EA"/>
<path d="M96.4997 141.545H91.2725V146.773H96.4997V141.545Z" fill="#2177E9"/>
<path d="M102.772 141.545H97.5449V146.773H102.772V141.545Z" fill="#1981EF"/>
<path d="M109.046 141.545H103.818V146.773H109.046V141.545Z" fill="#079AFB"/>
<path d="M115.318 141.545H110.091V146.773H115.318V141.545Z" fill="#2670E6"/>
<path d="M121.591 141.545H116.363V146.773H121.591V141.545Z" fill="#1A80EE"/>
<path d="M127.864 141.545H122.637V146.773H127.864V141.545Z" fill="#0898FA"/>
<path d="M134.136 141.545H128.909V146.773H134.136V141.545Z" fill="#128BF3"/>
<path d="M140.409 141.545H135.182V146.773H140.409V141.545Z" fill="#01A1FE"/>
<path d="M146.681 141.545H141.454V146.773H146.681V141.545Z" fill="#0D92F7"/>
<path d="M152.955 141.545H147.728V146.773H152.955V141.545Z" fill="#1C7EED"/>
<path d="M159.227 141.545H154V146.773H159.227V141.545Z" fill="#069AFB"/>
<path d="M165.5 141.545H160.272V146.773H165.5V141.545Z" fill="#1F7AEB"/>
<path d="M171.772 141.545H166.545V146.773H171.772V141.545Z" fill="#0899FA"/>
<path d="M178.046 141.545H172.818V146.773H178.046V141.545Z" fill="#1F79EB"/>
<path d="M184.318 141.545H179.091V146.773H184.318V141.545Z" fill="#108DF4"/>
<path d="M190.591 141.545H185.363V146.773H190.591V141.545Z" fill="#1883EF"/>
<path d="M196.864 141.545H191.637V146.773H196.864V141.545Z" fill="#079AFB"/>
<path d="M203.136 141.545H197.909V146.773H203.136V141.545Z" fill="#0899FA"/>
<path d="M27.5 147.818H22.2727V153.045H27.5V147.818Z" fill="#039EFD"/>
<path d="M33.7727 147.818H28.5454V153.045H33.7727V147.818Z" fill="#1D7CEC"/>
<path d="M40.0456 147.818H34.8184V153.045H40.0456V147.818Z" fill="#1883EF"/>
<path d="M46.3181 147.818H41.0908V153.045H46.3181V147.818Z" fill="#01A1FE"/>
<path d="M52.5906 147.818H47.3633V153.045H52.5906V147.818Z" fill="#1685F0"/>
<path d="M58.864 147.818H53.6367V153.045H58.864V147.818Z" fill="#059CFC"/>
<path d="M65.1365 147.818H59.9092V153.045H65.1365V147.818Z" fill="#1882EF"/>
<path d="M71.4089 147.818H66.1816V153.045H71.4089V147.818Z" fill="#0899FA"/>
<path d="M77.6814 147.818H72.4541V153.045H77.6814V147.818Z" fill="#2670E6"/>
<path d="M83.9548 147.818H78.7275V153.045H83.9548V147.818Z" fill="#02A1FE"/>
<path d="M90.2273 147.818H85V153.045H90.2273V147.818Z" fill="#059DFC"/>
<path d="M96.4997 147.818H91.2725V153.045H96.4997V147.818Z" fill="#1B7FED"/>
<path d="M102.772 147.818H97.5449V153.045H102.772V147.818Z" fill="#2473E8"/>
<path d="M109.046 147.818H103.818V153.045H109.046V147.818Z" fill="#2276E9"/>
<path d="M115.318 147.818H110.091V153.045H115.318V147.818Z" fill="#128BF3"/>
<path d="M121.591 147.818H116.363V153.045H121.591V147.818Z" fill="#049DFC"/>
<path d="M127.864 147.818H122.637V153.045H127.864V147.818Z" fill="#2472E7"/>
<path d="M134.136 147.818H128.909V153.045H134.136V147.818Z" fill="#0D92F7"/>
<path d="M140.409 147.818H135.182V153.045H140.409V147.818Z" fill="#1D7DEC"/>
<path d="M146.681 147.818H141.454V153.045H146.681V147.818Z" fill="#069BFB"/>
<path d="M152.955 147.818H147.728V153.045H152.955V147.818Z" fill="#02A0FE"/>
<path d="M159.227 147.818H154V153.045H159.227V147.818Z" fill="#0F8FF5"/>
<path d="M165.5 147.818H160.272V153.045H165.5V147.818Z" fill="#1F79EB"/>
<path d="M171.772 147.818H166.545V153.045H171.772V147.818Z" fill="#0F8FF5"/>
<path d="M178.046 147.818H172.818V153.045H178.046V147.818Z" fill="#0B95F8"/>
<path d="M184.318 147.818H179.091V153.045H184.318V147.818Z" fill="#039EFD"/>
<path d="M190.591 147.818H185.363V153.045H190.591V147.818Z" fill="#1488F2"/>
<path d="M196.864 147.818H191.637V153.045H196.864V147.818Z" fill="#1D7DEC"/>
<path d="M27.5 154.091H22.2727V159.318H27.5V154.091Z" fill="#2571E7"/>
<path d="M33.7727 154.091H28.5454V159.318H33.7727V154.091Z" fill="#1F79EB"/>
<path d="M40.0456 154.091H34.8184V159.318H40.0456V154.091Z" fill="#059CFC"/>
<path d="M46.3181 154.091H41.0908V159.318H46.3181V154.091Z" fill="#1883EF"/>
<path d="M52.5906 154.091H47.3633V159.318H52.5906V154.091Z" fill="#1883F0"/>
<path d="M58.864 154.091H53.6367V159.318H58.864V154.091Z" fill="#02A0FE"/>
<path d="M65.1365 154.091H59.9092V159.318H65.1365V154.091Z" fill="#1882EF"/>
<path d="M71.4089 154.091H66.1816V159.318H71.4089V154.091Z" fill="#2176E9"/>
<path d="M77.6814 154.091H72.4541V159.318H77.6814V154.091Z" fill="#2374E8"/>
<path d="M83.9548 154.091H78.7275V159.318H83.9548V154.091Z" fill="#0C93F7"/>
<path d="M90.2273 154.091H85V159.318H90.2273V154.091Z" fill="#2374E8"/>
<path d="M96.4997 154.091H91.2725V159.318H96.4997V154.091Z" fill="#0997F9"/>
<path d="M102.772 154.091H97.5449V159.318H102.772V154.091Z" fill="#059CFC"/>
<path d="M109.046 154.091H103.818V159.318H109.046V154.091Z" fill="#138AF3"/>
<path d="M115.318 154.091H110.091V159.318H115.318V154.091Z" fill="#1F79EB"/>
<path d="M121.591 154.091H116.363V159.318H121.591V154.091Z" fill="#1981EF"/>
<path d="M127.864 154.091H122.637V159.318H127.864V154.091Z" fill="#0C93F7"/>
<path d="M134.136 154.091H128.909V159.318H134.136V154.091Z" fill="#0F8FF5"/>
<path d="M140.409 154.091H135.182V159.318H140.409V154.091Z" fill="#1B7FEE"/>
<path d="M146.681 154.091H141.454V159.318H146.681V154.091Z" fill="#049DFC"/>
<path d="M152.955 154.091H147.728V159.318H152.955V154.091Z" fill="#2473E7"/>
<path d="M159.227 154.091H154V159.318H159.227V154.091Z" fill="#118CF4"/>
<path d="M165.5 154.091H160.272V159.318H165.5V154.091Z" fill="#0799FA"/>
<path d="M171.772 154.091H166.545V159.318H171.772V154.091Z" fill="#1784F0"/>
<path d="M178.046 154.091H172.818V159.318H178.046V154.091Z" fill="#049EFD"/>
<path d="M184.318 154.091H179.091V159.318H184.318V154.091Z" fill="#0898FA"/>
<path d="M190.591 154.091H185.363V159.318H190.591V154.091Z" fill="#069BFB"/>
<path d="M196.864 154.091H191.637V159.318H196.864V154.091Z" fill="#0997F9"/>
<path d="M33.7727 160.364H28.5454V165.591H33.7727V160.364Z" fill="#0D92F7"/>
<path d="M40.0456 160.364H34.8184V165.591H40.0456V160.364Z" fill="#1981EE"/>
<path d="M46.3181 160.364H41.0908V165.591H46.3181V160.364Z" fill="#0E90F6"/>
<path d="M52.5906 160.364H47.3633V165.591H52.5906V160.364Z" fill="#059CFC"/>
<path d="M58.864 160.364H53.6367V165.591H58.864V160.364Z" fill="#1686F1"/>
<path d="M65.1365 160.364H59.9092V165.591H65.1365V160.364Z" fill="#2671E6"/>
<path d="M71.4089 160.364H66.1816V165.591H71.4089V160.364Z" fill="#1587F2"/>
<path d="M77.6814 160.364H72.4541V165.591H77.6814V160.364Z" fill="#079AFB"/>
<path d="M83.9548 160.364H78.7275V165.591H83.9548V160.364Z" fill="#079AFB"/>
<path d="M90.2273 160.364H85V165.591H90.2273V160.364Z" fill="#1A80EE"/>
<path d="M96.4997 160.364H91.2725V165.591H96.4997V160.364Z" fill="#01A1FE"/>
<path d="M102.772 160.364H97.5449V165.591H102.772V160.364Z" fill="#1F7AEB"/>
<path d="M109.046 160.364H103.818V165.591H109.046V160.364Z" fill="#1F79EB"/>
<path d="M115.318 160.364H110.091V165.591H115.318V160.364Z" fill="#2177EA"/>
<path d="M121.591 160.364H116.363V165.591H121.591V160.364Z" fill="#2473E7"/>
<path d="M127.864 160.364H122.637V165.591H127.864V160.364Z" fill="#2177EA"/>
<path d="M134.136 160.364H128.909V165.591H134.136V160.364Z" fill="#1D7DEC"/>
<path d="M140.409 160.364H135.182V165.591H140.409V160.364Z" fill="#1B7FEE"/>
<path d="M146.681 160.364H141.454V165.591H146.681V160.364Z" fill="#2177E9"/>
<path d="M152.955 160.364H147.728V165.591H152.955V160.364Z" fill="#02A0FE"/>
<path d="M159.227 160.364H154V165.591H159.227V160.364Z" fill="#069BFB"/>
<path d="M165.5 160.364H160.272V165.591H165.5V160.364Z" fill="#118DF4"/>
<path d="M171.772 160.364H166.545V165.591H171.772V160.364Z" fill="#0A95F8"/>
<path d="M178.046 160.364H172.818V165.591H178.046V160.364Z" fill="#2177E9"/>
<path d="M184.318 160.364H179.091V165.591H184.318V160.364Z" fill="#1D7CEC"/>
<path d="M190.591 160.364H185.363V165.591H190.591V160.364Z" fill="#049DFC"/>
<path d="M40.0456 166.636H34.8184V171.864H40.0456V166.636Z" fill="#0F8FF5"/>
<path d="M46.3181 166.636H41.0908V171.864H46.3181V166.636Z" fill="#069BFB"/>
<path d="M52.5906 166.636H47.3633V171.864H52.5906V166.636Z" fill="#1488F2"/>
<path d="M58.864 166.636H53.6367V171.864H58.864V166.636Z" fill="#2176E9"/>
<path d="M65.1365 166.636H59.9092V171.864H65.1365V166.636Z" fill="#039FFD"/>
<path d="M71.4089 166.636H66.1816V171.864H71.4089V166.636Z" fill="#1C7EED"/>
<path d="M77.6814 166.636H72.4541V171.864H77.6814V166.636Z" fill="#059CFC"/>
<path d="M83.9548 166.636H78.7275V171.864H83.9548V166.636Z" fill="#1981EE"/>
<path d="M90.2273 166.636H85V171.864H90.2273V166.636Z" fill="#1587F1"/>
<path d="M96.4997 166.636H91.2725V171.864H96.4997V166.636Z" fill="#1B7EED"/>
<path d="M102.772 166.636H97.5449V171.864H102.772V166.636Z" fill="#1883F0"/>
<path d="M109.046 166.636H103.818V171.864H109.046V166.636Z" fill="#2079EA"/>
<path d="M115.318 166.636H110.091V171.864H115.318V166.636Z" fill="#01A1FE"/>
<path d="M121.591 166.636H116.363V171.864H121.591V166.636Z" fill="#1E7BEC"/>
<path d="M127.864 166.636H122.637V171.864H127.864V166.636Z" fill="#049DFC"/>
<path d="M134.136 166.636H128.909V171.864H134.136V166.636Z" fill="#1B7EED"/>
<path d="M140.409 166.636H135.182V171.864H140.409V166.636Z" fill="#1B7FED"/>
<path d="M146.681 166.636H141.454V171.864H146.681V166.636Z" fill="#049EFD"/>
<path d="M152.955 166.636H147.728V171.864H152.955V166.636Z" fill="#0A96F9"/>
<path d="M159.227 166.636H154V171.864H159.227V166.636Z" fill="#128BF3"/>
<path d="M165.5 166.636H160.272V171.864H165.5V166.636Z" fill="#1981EE"/>
<path d="M171.772 166.636H166.545V171.864H171.772V166.636Z" fill="#059CFC"/>
<path d="M178.046 166.636H172.818V171.864H178.046V166.636Z" fill="#1D7CEC"/>
<path d="M184.318 166.636H179.091V171.864H184.318V166.636Z" fill="#0E91F6"/>
<path d="M46.3181 172.909H41.0908V178.136H46.3181V172.909Z" fill="#0D92F7"/>
<path d="M52.5906 172.909H47.3633V178.136H52.5906V172.909Z" fill="#0C93F7"/>
<path d="M58.864 172.909H53.6367V178.136H58.864V172.909Z" fill="#059DFC"/>
<path d="M65.1365 172.909H59.9092V178.136H65.1365V172.909Z" fill="#2176E9"/>
<path d="M71.4089 172.909H66.1816V178.136H71.4089V172.909Z" fill="#069BFB"/>
<path d="M77.6814 172.909H72.4541V178.136H77.6814V172.909Z" fill="#039EFD"/>
<path d="M83.9548 172.909H78.7275V178.136H83.9548V172.909Z" fill="#069AFB"/>
<path d="M90.2273 172.909H85V178.136H90.2273V172.909Z" fill="#069AFB"/>
<path d="M96.4997 172.909H91.2725V178.136H96.4997V172.909Z" fill="#00A3FF"/>
<path d="M102.772 172.909H97.5449V178.136H102.772V172.909Z" fill="#2571E7"/>
<path d="M109.046 172.909H103.818V178.136H109.046V172.909Z" fill="#2176E9"/>
<path d="M115.318 172.909H110.091V178.136H115.318V172.909Z" fill="#039FFD"/>
<path d="M121.591 172.909H116.363V178.136H121.591V172.909Z" fill="#01A2FF"/>
<path d="M127.864 172.909H122.637V178.136H127.864V172.909Z" fill="#0E90F6"/>
<path d="M134.136 172.909H128.909V178.136H134.136V172.909Z" fill="#2473E7"/>
<path d="M140.409 172.909H135.182V178.136H140.409V172.909Z" fill="#0799FA"/>
<path d="M146.681 172.909H141.454V178.136H146.681V172.909Z" fill="#118CF4"/>
<path d="M152.955 172.909H147.728V178.136H152.955V172.909Z" fill="#0B94F8"/>
<path d="M159.227 172.909H154V178.136H159.227V172.909Z" fill="#0997F9"/>
<path d="M165.5 172.909H160.272V178.136H165.5V172.909Z" fill="#0997F9"/>
<path d="M171.772 172.909H166.545V178.136H171.772V172.909Z" fill="#079AFB"/>
<path d="M178.046 172.909H172.818V178.136H178.046V172.909Z" fill="#2276E9"/>
<path d="M52.5906 179.182H47.3633V184.409H52.5906V179.182Z" fill="#0A95F8"/>
<path d="M58.864 179.182H53.6367V184.409H58.864V179.182Z" fill="#118CF4"/>
<path d="M65.1365 179.182H59.9092V184.409H65.1365V179.182Z" fill="#0B95F8"/>
<path d="M71.4089 179.182H66.1816V184.409H71.4089V179.182Z" fill="#2375E8"/>
<path d="M77.6814 179.182H72.4541V184.409H77.6814V179.182Z" fill="#2276E9"/>
<path d="M83.9548 179.182H78.7275V184.409H83.9548V179.182Z" fill="#0F8FF5"/>
<path d="M90.2273 179.182H85V184.409H90.2273V179.182Z" fill="#2671E6"/>
<path d="M96.4997 179.182H91.2725V184.409H96.4997V179.182Z" fill="#1488F2"/>
<path d="M102.772 179.182H97.5449V184.409H102.772V179.182Z" fill="#0D92F7"/>
<path d="M109.046 179.182H103.818V184.409H109.046V179.182Z" fill="#2571E7"/>
<path d="M115.318 179.182H110.091V184.409H115.318V179.182Z" fill="#118CF4"/>
<path d="M121.591 179.182H116.363V184.409H121.591V179.182Z" fill="#1A80EE"/>
<path d="M127.864 179.182H122.637V184.409H127.864V179.182Z" fill="#118CF4"/>
<path d="M134.136 179.182H128.909V184.409H134.136V179.182Z" fill="#0B94F8"/>
<path d="M140.409 179.182H135.182V184.409H140.409V179.182Z" fill="#108EF5"/>
<path d="M146.681 179.182H141.454V184.409H146.681V179.182Z" fill="#1982EF"/>
<path d="M152.955 179.182H147.728V184.409H152.955V179.182Z" fill="#0D92F7"/>
<path d="M159.227 179.182H154V184.409H159.227V179.182Z" fill="#1488F2"/>
<path d="M165.5 179.182H160.272V184.409H165.5V179.182Z" fill="#1784F0"/>
<path d="M171.772 179.182H166.545V184.409H171.772V179.182Z" fill="#108EF5"/>
<path d="M58.864 185.455H53.6367V190.682H58.864V185.455Z" fill="#118CF4"/>
<path d="M65.1365 185.455H59.9092V190.682H65.1365V185.455Z" fill="#1982EF"/>
<path d="M71.4089 185.455H66.1816V190.682H71.4089V185.455Z" fill="#0A96F9"/>
<path d="M77.6814 185.455H72.4541V190.682H77.6814V185.455Z" fill="#0D92F7"/>
<path d="M83.9548 185.455H78.7275V190.682H83.9548V185.455Z" fill="#0F8FF5"/>
<path d="M90.2273 185.455H85V190.682H90.2273V185.455Z" fill="#0F8FF5"/>
<path d="M96.4997 185.455H91.2725V190.682H96.4997V185.455Z" fill="#2670E6"/>
<path d="M102.772 185.455H97.5449V190.682H102.772V185.455Z" fill="#0A96F9"/>
<path d="M109.046 185.455H103.818V190.682H109.046V185.455Z" fill="#039FFD"/>
<path d="M115.318 185.455H110.091V190.682H115.318V185.455Z" fill="#1685F1"/>
<path d="M121.591 185.455H116.363V190.682H121.591V185.455Z" fill="#02A0FE"/>
<path d="M127.864 185.455H122.637V190.682H127.864V185.455Z" fill="#138AF3"/>
<path d="M134.136 185.455H128.909V190.682H134.136V185.455Z" fill="#2473E7"/>
<path d="M140.409 185.455H135.182V190.682H140.409V185.455Z" fill="#059CFC"/>
<path d="M146.681 185.455H141.454V190.682H146.681V185.455Z" fill="#2177EA"/>
<path d="M152.955 185.455H147.728V190.682H152.955V185.455Z" fill="#039FFD"/>
<path d="M159.227 185.455H154V190.682H159.227V185.455Z" fill="#2473E7"/>
<path d="M165.5 185.455H160.272V190.682H165.5V185.455Z" fill="#1784F0"/>
<path d="M71.4089 191.727H66.1816V196.955H71.4089V191.727Z" fill="#1882EF"/>
<path d="M77.6814 191.727H72.4541V196.955H77.6814V191.727Z" fill="#0C93F7"/>
<path d="M83.9548 191.727H78.7275V196.955H83.9548V191.727Z" fill="#1882EF"/>
<path d="M90.2273 191.727H85V196.955H90.2273V191.727Z" fill="#059CFC"/>
<path d="M96.4997 191.727H91.2725V196.955H96.4997V191.727Z" fill="#02A1FE"/>
<path d="M102.772 191.727H97.5449V196.955H102.772V191.727Z" fill="#1883EF"/>
<path d="M109.046 191.727H103.818V196.955H109.046V191.727Z" fill="#1E7BEB"/>
<path d="M115.318 191.727H110.091V196.955H115.318V191.727Z" fill="#1C7EED"/>
<path d="M121.591 191.727H116.363V196.955H121.591V191.727Z" fill="#2473E8"/>
<path d="M127.864 191.727H122.637V196.955H127.864V191.727Z" fill="#0E91F6"/>
<path d="M134.136 191.727H128.909V196.955H134.136V191.727Z" fill="#1D7DEC"/>
<path d="M140.409 191.727H135.182V196.955H140.409V191.727Z" fill="#138AF3"/>
<path d="M146.681 191.727H141.454V196.955H146.681V191.727Z" fill="#2375E8"/>
<path d="M152.955 191.727H147.728V196.955H152.955V191.727Z" fill="#1D7CEC"/>
<path d="M90.2273 198H85V203.227H90.2273V198Z" fill="#2670E6"/>
<path d="M96.4997 198H91.2725V203.227H96.4997V198Z" fill="#1F79EB"/>
<path d="M102.772 198H97.5449V203.227H102.772V198Z" fill="#1B7FED"/>
<path d="M109.046 198H103.818V203.227H109.046V198Z" fill="#1E7AEB"/>
<path d="M115.318 198H110.091V203.227H115.318V198Z" fill="#0B94F8"/>
<path d="M121.591 198H116.363V203.227H121.591V198Z" fill="#1488F2"/>
<path d="M127.864 198H122.637V203.227H127.864V198Z" fill="#108DF4"/>
<path d="M134.136 198H128.909V203.227H134.136V198Z" fill="#1784F0"/>
<path d="M15.969 120V97.3455H24.9069C26.6252 97.3455 28.089 97.6736 29.2985 98.33C30.5079 98.9789 31.4297 99.8823 32.0639 101.04C32.7055 102.191 33.0263 103.518 33.0263 105.022C33.0263 106.527 32.7018 107.854 32.0528 109.005C31.4039 110.155 30.4636 111.051 29.2321 111.693C28.0079 112.334 26.5256 112.655 24.7852 112.655H19.0884V108.817H24.0109C24.9327 108.817 25.6923 108.658 26.2896 108.341C26.8944 108.016 27.3442 107.57 27.6392 107.002C27.9415 106.427 28.0927 105.767 28.0927 105.022C28.0927 104.27 27.9415 103.614 27.6392 103.053C27.3442 102.485 26.8944 102.047 26.2896 101.737C25.6849 101.42 24.918 101.261 23.9888 101.261H20.7588V120H15.969ZM40.9272 97.3455V120H36.1374V97.3455H40.9272ZM49.359 97.3455L53.9275 105.067H54.1045L58.6952 97.3455H64.1044L57.1908 108.673L64.2592 120H58.7505L54.1045 112.268H53.9275L49.2816 120H43.7949L50.8855 108.673L43.9277 97.3455H49.359ZM67.1353 120V97.3455H82.4006V101.295H71.9251V106.693H81.6152V110.642H71.9251V116.051H82.4448V120H67.1353ZM86.2086 120V97.3455H90.9983V116.051H100.711V120H86.2086ZM100.191 101.295V97.3455H118.797V101.295H111.861V120H107.126V101.295H100.191ZM121.861 120V97.3455H130.799C132.51 97.3455 133.97 97.6515 135.179 98.2636C136.396 98.8683 137.321 99.7274 137.956 100.841C138.597 101.947 138.918 103.249 138.918 104.746C138.918 106.25 138.594 107.544 137.945 108.628C137.296 109.705 136.355 110.531 135.124 111.106C133.9 111.682 132.417 111.969 130.677 111.969H124.693V108.12H129.903C130.817 108.12 131.577 107.994 132.181 107.744C132.786 107.493 133.236 107.117 133.531 106.615C133.833 106.114 133.984 105.491 133.984 104.746C133.984 103.994 133.833 103.359 133.531 102.843C133.236 102.327 132.782 101.936 132.17 101.671C131.566 101.398 130.802 101.261 129.881 101.261H126.651V120H121.861ZM134.095 109.69L139.726 120H134.438L128.929 109.69H134.095ZM156.296 97.3455H161.086V112.058C161.086 113.71 160.691 115.155 159.902 116.394C159.121 117.633 158.025 118.599 156.617 119.292C155.208 119.978 153.568 120.321 151.694 120.321C149.814 120.321 148.169 119.978 146.761 119.292C145.352 118.599 144.257 117.633 143.475 116.394C142.694 115.155 142.303 113.71 142.303 112.058V97.3455H147.093V111.648C147.093 112.511 147.281 113.278 147.657 113.949C148.04 114.62 148.579 115.148 149.272 115.531C149.965 115.915 150.773 116.106 151.694 116.106C152.624 116.106 153.431 115.915 154.117 115.531C154.81 115.148 155.345 114.62 155.721 113.949C156.104 113.278 156.296 112.511 156.296 111.648V97.3455ZM177.316 103.861C177.228 102.969 176.848 102.275 176.177 101.781C175.506 101.287 174.595 101.04 173.445 101.04C172.663 101.04 172.003 101.151 171.465 101.372C170.926 101.586 170.513 101.884 170.226 102.268C169.945 102.651 169.805 103.087 169.805 103.573C169.791 103.979 169.875 104.333 170.06 104.635C170.251 104.938 170.513 105.199 170.845 105.421C171.177 105.634 171.56 105.822 171.996 105.985C172.431 106.14 172.895 106.272 173.389 106.383L175.425 106.87C176.413 107.091 177.32 107.386 178.146 107.755C178.972 108.123 179.687 108.577 180.292 109.115C180.897 109.654 181.365 110.288 181.697 111.018C182.036 111.748 182.209 112.585 182.217 113.529C182.209 114.915 181.855 116.117 181.155 117.135C180.462 118.145 179.459 118.931 178.146 119.491C176.841 120.044 175.266 120.321 173.423 120.321C171.594 120.321 170.001 120.041 168.644 119.48C167.294 118.92 166.24 118.09 165.48 116.991C164.728 115.885 164.333 114.517 164.297 112.887H168.931C168.983 113.647 169.201 114.281 169.584 114.79C169.975 115.291 170.495 115.671 171.144 115.929C171.8 116.18 172.541 116.305 173.367 116.305C174.178 116.305 174.883 116.187 175.48 115.951C176.085 115.715 176.553 115.387 176.885 114.967C177.217 114.547 177.383 114.064 177.383 113.518C177.383 113.009 177.231 112.581 176.929 112.235C176.634 111.888 176.199 111.593 175.624 111.35C175.056 111.106 174.359 110.885 173.533 110.686L171.066 110.067C169.156 109.602 167.648 108.876 166.542 107.887C165.436 106.899 164.886 105.568 164.894 103.894C164.886 102.522 165.252 101.324 165.989 100.299C166.734 99.2739 167.755 98.4738 169.053 97.8985C170.351 97.3233 171.826 97.0357 173.478 97.0357C175.159 97.0357 176.627 97.3233 177.88 97.8985C179.141 98.4738 180.122 99.2739 180.823 100.299C181.523 101.324 181.885 102.511 181.907 103.861H177.316ZM184.576 101.295V97.3455H203.181V101.295H196.246V120H191.511V101.295H184.576Z" fill="#113A51"/>
<path d="M90.2273 16H85V21.2273H90.2273V16Z" fill="#108EF5"/>
<path d="M96.4997 16H91.2725V21.2273H96.4997V16Z" fill="#0997F9"/>
<path d="M102.772 16H97.5449V21.2273H102.772V16Z" fill="#1586F1"/>
<path d="M109.046 16H103.818V21.2273H109.046V16Z" fill="#2670E6"/>
<path d="M115.318 16H110.091V21.2273H115.318V16Z" fill="#2079EA"/>
<path d="M121.591 16H116.363V21.2273H121.591V16Z" fill="#1488F2"/>
<path d="M127.864 16H122.637V21.2273H127.864V16Z" fill="#0997F9"/>
<path d="M134.136 16H128.909V21.2273H134.136V16Z" fill="#0898FA"/>
<path d="M71.4089 22H66.1816V27.2273H71.4089V22Z" fill="#138AF3"/>
<path d="M77.6814 22H72.4541V27.2273H77.6814V22Z" fill="#069AFB"/>
<path d="M83.9548 22H78.7275V27.2273H83.9548V22Z" fill="#0D92F7"/>
<path d="M90.2273 22H85V27.2273H90.2273V22Z" fill="#0997F9"/>
<path d="M96.4997 22H91.2725V27.2273H96.4997V22Z" fill="#2473E7"/>
<path d="M102.772 22H97.5449V27.2273H102.772V22Z" fill="#1A80EE"/>
<path d="M109.046 22H103.818V27.2273H109.046V22Z" fill="#0899FA"/>
<path d="M115.318 22H110.091V27.2273H115.318V22Z" fill="#0B94F8"/>
<path d="M121.591 22H116.363V27.2273H121.591V22Z" fill="#1587F1"/>
<path d="M127.864 22H122.637V27.2273H127.864V22Z" fill="#0997F9"/>
<path d="M134.136 22H128.909V27.2273H134.136V22Z" fill="#1A80EE"/>
<path d="M140.409 22H135.182V27.2273H140.409V22Z" fill="#059DFC"/>
<path d="M146.681 22H141.454V27.2273H146.681V22Z" fill="#059DFC"/>
<path d="M152.955 22H147.728V27.2273H152.955V22Z" fill="#1981EF"/>
<path d="M58.864 28H53.6367V33.2273H58.864V28Z" fill="#0A96F9"/>
<path d="M65.1365 28H59.9092V33.2273H65.1365V28Z" fill="#0A95F8"/>
<path d="M71.4089 28H66.1816V33.2273H71.4089V28Z" fill="#00A2FF"/>
<path d="M77.6814 28H72.4541V33.2273H77.6814V28Z" fill="#0B94F8"/>
<path d="M83.9548 28H78.7275V33.2273H83.9548V28Z" fill="#1B7EED"/>
<path d="M90.2273 28H85V33.2273H90.2273V28Z" fill="#2079EA"/>
<path d="M96.4997 28H91.2725V33.2273H96.4997V28Z" fill="#1F7AEB"/>
<path d="M102.772 28H97.5449V33.2273H102.772V28Z" fill="#2571E7"/>
<path d="M109.046 28H103.818V33.2273H109.046V28Z" fill="#0E90F6"/>
<path d="M115.318 28H110.091V33.2273H115.318V28Z" fill="#00A2FF"/>
<path d="M121.591 28H116.363V33.2273H121.591V28Z" fill="#1982EF"/>
<path d="M127.864 28H122.637V33.2273H127.864V28Z" fill="#0B95F8"/>
<path d="M134.136 28H128.909V33.2273H134.136V28Z" fill="#0B94F8"/>
<path d="M140.409 28H135.182V33.2273H140.409V28Z" fill="#2177EA"/>
<path d="M146.681 28H141.454V33.2273H146.681V28Z" fill="#039FFD"/>
<path d="M152.955 28H147.728V33.2273H152.955V28Z" fill="#1883EF"/>
<path d="M159.227 28H154V33.2273H159.227V28Z" fill="#1C7EED"/>
<path d="M165.5 28H160.272V33.2273H165.5V28Z" fill="#0E90F6"/>
<path d="M52.5906 34H47.3633V39.2273H52.5906V34Z" fill="#118DF4"/>
<path d="M58.864 34H53.6367V39.2273H58.864V34Z" fill="#2670E6"/>
<path d="M65.1365 34H59.9092V39.2273H65.1365V34Z" fill="#1981EE"/>
<path d="M71.4089 34H66.1816V39.2273H71.4089V34Z" fill="#108EF5"/>
<path d="M77.6814 34H72.4541V39.2273H77.6814V34Z" fill="#0B94F8"/>
<path d="M83.9548 34H78.7275V39.2273H83.9548V34Z" fill="#0997F9"/>
<path d="M90.2273 34H85V39.2273H90.2273V34Z" fill="#0A95F8"/>
<path d="M96.4997 34H91.2725V39.2273H96.4997V34Z" fill="#0E90F6"/>
<path d="M102.772 34H97.5449V39.2273H102.772V34Z" fill="#0B95F8"/>
<path d="M109.046 34H103.818V39.2273H109.046V34Z" fill="#0F8FF5"/>
<path d="M115.318 34H110.091V39.2273H115.318V34Z" fill="#1883F0"/>
<path d="M121.591 34H116.363V39.2273H121.591V34Z" fill="#039EFD"/>
<path d="M127.864 34H122.637V39.2273H127.864V34Z" fill="#1488F2"/>
<path d="M134.136 34H128.909V39.2273H134.136V34Z" fill="#2374E8"/>
<path d="M140.409 34H135.182V39.2273H140.409V34Z" fill="#0E90F6"/>
<path d="M146.681 34H141.454V39.2273H146.681V34Z" fill="#1685F0"/>
<path d="M152.955 34H147.728V39.2273H152.955V34Z" fill="#02A1FE"/>
<path d="M159.227 34H154V39.2273H159.227V34Z" fill="#2375E8"/>
<path d="M165.5 34H160.272V39.2273H165.5V34Z" fill="#1B7EED"/>
<path d="M171.772 34H166.545V39.2273H171.772V34Z" fill="#059CFC"/>
<path d="M46.3181 40H41.0908V45.2273H46.3181V40Z" fill="#2374E8"/>
<path d="M52.5906 40H47.3633V45.2273H52.5906V40Z" fill="#1685F0"/>
<path d="M58.864 40H53.6367V45.2273H58.864V40Z" fill="#0898FA"/>
<path d="M65.1365 40H59.9092V45.2273H65.1365V40Z" fill="#1E7BEC"/>
<path d="M71.4089 40H66.1816V45.2273H71.4089V40Z" fill="#039EFD"/>
<path d="M77.6814 40H72.4541V45.2273H77.6814V40Z" fill="#1685F0"/>
<path d="M83.9548 40H78.7275V45.2273H83.9548V40Z" fill="#1D7CEC"/>
<path d="M90.2273 40H85V45.2273H90.2273V40Z" fill="#1C7EED"/>
<path d="M96.4997 40H91.2725V45.2273H96.4997V40Z" fill="#069AFB"/>
<path d="M102.772 40H97.5449V45.2273H102.772V40Z" fill="#2671E6"/>
<path d="M109.046 40H103.818V45.2273H109.046V40Z" fill="#2078EA"/>
<path d="M115.318 40H110.091V45.2273H115.318V40Z" fill="#2671E6"/>
<path d="M121.591 40H116.363V45.2273H121.591V40Z" fill="#0C93F7"/>
<path d="M127.864 40H122.637V45.2273H127.864V40Z" fill="#069BFB"/>
<path d="M134.136 40H128.909V45.2273H134.136V40Z" fill="#1C7DED"/>
<path d="M140.409 40H135.182V45.2273H140.409V40Z" fill="#1686F1"/>
<path d="M146.681 40H141.454V45.2273H146.681V40Z" fill="#2276E9"/>
<path d="M152.955 40H147.728V45.2273H152.955V40Z" fill="#1E7AEB"/>
<path d="M159.227 40H154V45.2273H159.227V40Z" fill="#2374E8"/>
<path d="M165.5 40H160.272V45.2273H165.5V40Z" fill="#2572E7"/>
<path d="M171.772 40H166.545V45.2273H171.772V40Z" fill="#1784F0"/>
<path d="M178.046 40H172.818V45.2273H178.046V40Z" fill="#2375E8"/>
<path d="M40.0456 46H34.8184V51.2273H40.0456V46Z" fill="#0A96F9"/>
<path d="M46.3181 46H41.0908V51.2273H46.3181V46Z" fill="#1883EF"/>
<path d="M52.5906 46H47.3633V51.2273H52.5906V46Z" fill="#0D91F6"/>
<path d="M58.864 46H53.6367V51.2273H58.864V46Z" fill="#1E7BEB"/>
<path d="M65.1365 46H59.9092V51.2273H65.1365V46Z" fill="#2078EA"/>
<path d="M71.4089 46H66.1816V51.2273H71.4089V46Z" fill="#2375E8"/>
<path d="M77.6814 46H72.4541V51.2273H77.6814V46Z" fill="#2572E7"/>
<path d="M83.9548 46H78.7275V51.2273H83.9548V46Z" fill="#0D92F7"/>
<path d="M90.2273 46H85V51.2273H90.2273V46Z" fill="#108EF5"/>
<path d="M96.4997 46H91.2725V51.2273H96.4997V46Z" fill="#1B7FED"/>
<path d="M102.772 46H97.5449V51.2273H102.772V46Z" fill="#1C7EED"/>
<path d="M109.046 46H103.818V51.2273H109.046V46Z" fill="#1685F1"/>
<path d="M115.318 46H110.091V51.2273H115.318V46Z" fill="#1B7EED"/>
<path d="M121.591 46H116.363V51.2273H121.591V46Z" fill="#0B94F8"/>
<path d="M127.864 46H122.637V51.2273H127.864V46Z" fill="#2176E9"/>
<path d="M134.136 46H128.909V51.2273H134.136V46Z" fill="#0B95F8"/>
<path d="M140.409 46H135.182V51.2273H140.409V46Z" fill="#039FFD"/>
<path d="M146.681 46H141.454V51.2273H146.681V46Z" fill="#1587F1"/>
<path d="M152.955 46H147.728V51.2273H152.955V46Z" fill="#108DF4"/>
<path d="M159.227 46H154V51.2273H159.227V46Z" fill="#2078EA"/>
<path d="M165.5 46H160.272V51.2273H165.5V46Z" fill="#1D7DEC"/>
<path d="M171.772 46H166.545V51.2273H171.772V46Z" fill="#1883F0"/>
<path d="M178.046 46H172.818V51.2273H178.046V46Z" fill="#1C7DED"/>
<path d="M184.318 46H179.091V51.2273H184.318V46Z" fill="#0F8FF5"/>
<path d="M33.7727 52H28.5454V57.2273H33.7727V52Z" fill="#00A2FF"/>
<path d="M40.0456 52H34.8184V57.2273H40.0456V52Z" fill="#2472E7"/>
<path d="M46.3181 52H41.0908V57.2273H46.3181V52Z" fill="#2473E7"/>
<path d="M52.5906 52H47.3633V57.2273H52.5906V52Z" fill="#1982EF"/>
<path d="M58.864 52H53.6367V57.2273H58.864V52Z" fill="#2572E7"/>
<path d="M65.1365 52H59.9092V57.2273H65.1365V52Z" fill="#1B7EED"/>
<path d="M71.4089 52H66.1816V57.2273H71.4089V52Z" fill="#039EFD"/>
<path d="M77.6814 52H72.4541V57.2273H77.6814V52Z" fill="#0898FA"/>
<path d="M83.9548 52H78.7275V57.2273H83.9548V52Z" fill="#2374E8"/>
<path d="M90.2273 52H85V57.2273H90.2273V52Z" fill="#2374E8"/>
<path d="M96.4997 52H91.2725V57.2273H96.4997V52Z" fill="#2177E9"/>
<path d="M102.772 52H97.5449V57.2273H102.772V52Z" fill="#0E90F6"/>
<path d="M109.046 52H103.818V57.2273H109.046V52Z" fill="#0997F9"/>
<path d="M115.318 52H110.091V57.2273H115.318V52Z" fill="#2079EA"/>
<path d="M121.591 52H116.363V57.2273H121.591V52Z" fill="#1A80EE"/>
<path d="M127.864 52H122.637V57.2273H127.864V52Z" fill="#1981EE"/>
<path d="M134.136 52H128.909V57.2273H134.136V52Z" fill="#1982EF"/>
<path d="M140.409 52H135.182V57.2273H140.409V52Z" fill="#128BF3"/>
<path d="M146.681 52H141.454V57.2273H146.681V52Z" fill="#1981EF"/>
<path d="M152.955 52H147.728V57.2273H152.955V52Z" fill="#1586F1"/>
<path d="M159.227 52H154V57.2273H159.227V52Z" fill="#2079EA"/>
<path d="M165.5 52H160.272V57.2273H165.5V52Z" fill="#1488F2"/>
<path d="M171.772 52H166.545V57.2273H171.772V52Z" fill="#1C7EED"/>
<path d="M178.046 52H172.818V57.2273H178.046V52Z" fill="#039EFD"/>
<path d="M184.318 52H179.091V57.2273H184.318V52Z" fill="#0899FA"/>
<path d="M190.591 52H185.363V57.2273H190.591V52Z" fill="#0B94F8"/>
<path d="M27.5 58H22.2727V63.2273H27.5V58Z" fill="#138AF3"/>
<path d="M33.7727 58H28.5454V63.2273H33.7727V58Z" fill="#138AF3"/>
<path d="M40.0456 58H34.8184V63.2273H40.0456V58Z" fill="#059CFC"/>
<path d="M46.3181 58H41.0908V63.2273H46.3181V58Z" fill="#0D91F6"/>
<path d="M52.5906 58H47.3633V63.2273H52.5906V58Z" fill="#0D91F6"/>
<path d="M58.864 58H53.6367V63.2273H58.864V58Z" fill="#1883F0"/>
<path d="M65.1365 58H59.9092V63.2273H65.1365V58Z" fill="#118CF4"/>
<path d="M71.4089 58H66.1816V63.2273H71.4089V58Z" fill="#02A0FE"/>
<path d="M77.6814 58H72.4541V63.2273H77.6814V58Z" fill="#0B94F8"/>
<path d="M83.9548 58H78.7275V63.2273H83.9548V58Z" fill="#1586F1"/>
<path d="M90.2273 58H85V63.2273H90.2273V58Z" fill="#1B7FEE"/>
<path d="M96.4997 58H91.2725V63.2273H96.4997V58Z" fill="#128BF3"/>
<path d="M102.772 58H97.5449V63.2273H102.772V58Z" fill="#118CF4"/>
<path d="M109.046 58H103.818V63.2273H109.046V58Z" fill="#128BF3"/>
<path d="M115.318 58H110.091V63.2273H115.318V58Z" fill="#0C93F7"/>
<path d="M121.591 58H116.363V63.2273H121.591V58Z" fill="#059CFC"/>
<path d="M127.864 58H122.637V63.2273H127.864V58Z" fill="#108DF4"/>
<path d="M134.136 58H128.909V63.2273H134.136V58Z" fill="#02A0FE"/>
<path d="M140.409 58H135.182V63.2273H140.409V58Z" fill="#1883F0"/>
<path d="M146.681 58H141.454V63.2273H146.681V58Z" fill="#0F8FF5"/>
<path d="M152.955 58H147.728V63.2273H152.955V58Z" fill="#1784F0"/>
<path d="M159.227 58H154V63.2273H159.227V58Z" fill="#059CFC"/>
<path d="M165.5 58H160.272V63.2273H165.5V58Z" fill="#1D7CEC"/>
<path d="M171.772 58H166.545V63.2273H171.772V58Z" fill="#059CFC"/>
<path d="M178.046 58H172.818V63.2273H178.046V58Z" fill="#0C93F7"/>
<path d="M184.318 58H179.091V63.2273H184.318V58Z" fill="#0898FA"/>
<path d="M190.591 58H185.363V63.2273H190.591V58Z" fill="#1685F0"/>
<path d="M196.864 58H191.637V63.2273H196.864V58Z" fill="#1784F0"/>
<path d="M27.5 64H22.2727V69.2273H27.5V64Z" fill="#1E7AEB"/>
<path d="M33.7727 64H28.5454V69.2273H33.7727V64Z" fill="#1E7BEB"/>
<path d="M40.0456 64H34.8184V69.2273H40.0456V64Z" fill="#0898FA"/>
<path d="M46.3181 64H41.0908V69.2273H46.3181V64Z" fill="#079AFB"/>
<path d="M52.5906 64H47.3633V69.2273H52.5906V64Z" fill="#138AF3"/>
<path d="M58.864 64H53.6367V69.2273H58.864V64Z" fill="#00A3FF"/>
<path d="M65.1365 64H59.9092V69.2273H65.1365V64Z" fill="#118CF4"/>
<path d="M71.4089 64H66.1816V69.2273H71.4089V64Z" fill="#079AFB"/>
<path d="M77.6814 64H72.4541V69.2273H77.6814V64Z" fill="#0D92F7"/>
<path d="M83.9548 64H78.7275V69.2273H83.9548V64Z" fill="#1981EE"/>
<path d="M90.2273 64H85V69.2273H90.2273V64Z" fill="#1E7AEB"/>
<path d="M96.4997 64H91.2725V69.2273H96.4997V64Z" fill="#0A96F9"/>
<path d="M102.772 64H97.5449V69.2273H102.772V64Z" fill="#1E7BEB"/>
<path d="M109.046 64H103.818V69.2273H109.046V64Z" fill="#138AF3"/>
<path d="M115.318 64H110.091V69.2273H115.318V64Z" fill="#1B7EED"/>
<path d="M121.591 64H116.363V69.2273H121.591V64Z" fill="#108DF4"/>
<path d="M127.864 64H122.637V69.2273H127.864V64Z" fill="#1B7EED"/>
<path d="M134.136 64H128.909V69.2273H134.136V64Z" fill="#0E90F6"/>
<path d="M140.409 64H135.182V69.2273H140.409V64Z" fill="#0997F9"/>
<path d="M146.681 64H141.454V69.2273H146.681V64Z" fill="#1981EE"/>
<path d="M152.955 64H147.728V69.2273H152.955V64Z" fill="#2275E9"/>
<path d="M159.227 64H154V69.2273H159.227V64Z" fill="#01A2FF"/>
<path d="M165.5 64H160.272V69.2273H165.5V64Z" fill="#2079EA"/>
<path d="M171.772 64H166.545V69.2273H171.772V64Z" fill="#118DF4"/>
<path d="M178.046 64H172.818V69.2273H178.046V64Z" fill="#059CFC"/>
<path d="M184.318 64H179.091V69.2273H184.318V64Z" fill="#1488F2"/>
<path d="M190.591 64H185.363V69.2273H190.591V64Z" fill="#0799FA"/>
<path d="M196.864 64H191.637V69.2273H196.864V64Z" fill="#1D7CEC"/>
<path d="M21.2273 70H16V75.2273H21.2273V70Z" fill="#0D92F7"/>
<path d="M27.5 70H22.2727V75.2273H27.5V70Z" fill="#1587F1"/>
<path d="M33.7727 70H28.5454V75.2273H33.7727V70Z" fill="#0799FA"/>
<path d="M40.0456 70H34.8184V75.2273H40.0456V70Z" fill="#0D92F7"/>
<path d="M46.3181 70H41.0908V75.2273H46.3181V70Z" fill="#0799FA"/>
<path d="M52.5906 70H47.3633V75.2273H52.5906V70Z" fill="#0898FA"/>
<path d="M58.864 70H53.6367V75.2273H58.864V70Z" fill="#118CF4"/>
<path d="M65.1365 70H59.9092V75.2273H65.1365V70Z" fill="#069AFB"/>
<path d="M71.4089 70H66.1816V75.2273H71.4089V70Z" fill="#0F8FF5"/>
<path d="M77.6814 70H72.4541V75.2273H77.6814V70Z" fill="#1981EE"/>
<path d="M83.9548 70H78.7275V75.2273H83.9548V70Z" fill="#039EFD"/>
<path d="M90.2273 70H85V75.2273H90.2273V70Z" fill="#1A80EE"/>
<path d="M96.4997 70H91.2725V75.2273H96.4997V70Z" fill="#108EF5"/>
<path d="M102.772 70H97.5449V75.2273H102.772V70Z" fill="#108DF4"/>
<path d="M109.046 70H103.818V75.2273H109.046V70Z" fill="#118CF4"/>
<path d="M115.318 70H110.091V75.2273H115.318V70Z" fill="#118DF4"/>
<path d="M121.591 70H116.363V75.2273H121.591V70Z" fill="#00A3FF"/>
<path d="M127.864 70H122.637V75.2273H127.864V70Z" fill="#1488F2"/>
<path d="M134.136 70H128.909V75.2273H134.136V70Z" fill="#1E7BEB"/>
<path d="M140.409 70H135.182V75.2273H140.409V70Z" fill="#0A96F9"/>
<path d="M146.681 70H141.454V75.2273H146.681V70Z" fill="#1A80EE"/>
<path d="M152.955 70H147.728V75.2273H152.955V70Z" fill="#1686F1"/>
<path d="M159.227 70H154V75.2273H159.227V70Z" fill="#0F8FF5"/>
<path d="M165.5 70H160.272V75.2273H165.5V70Z" fill="#118CF4"/>
<path d="M171.772 70H166.545V75.2273H171.772V70Z" fill="#1784F0"/>
<path d="M178.046 70H172.818V75.2273H178.046V70Z" fill="#0898FA"/>
<path d="M184.318 70H179.091V75.2273H184.318V70Z" fill="#1E7BEC"/>
<path d="M190.591 70H185.363V75.2273H190.591V70Z" fill="#049DFC"/>
<path d="M196.864 70H191.637V75.2273H196.864V70Z" fill="#2473E8"/>
<path d="M203.136 70H197.909V75.2273H203.136V70Z" fill="#0898FA"/>
<path d="M21.2273 76H16V81.2273H21.2273V76Z" fill="#2571E7"/>
<path d="M27.5 76H22.2727V81.2273H27.5V76Z" fill="#108EF5"/>
<path d="M33.7727 76H28.5454V81.2273H33.7727V76Z" fill="#2276E9"/>
<path d="M40.0456 76H34.8184V81.2273H40.0456V76Z" fill="#0C93F7"/>
<path d="M46.3181 76H41.0908V81.2273H46.3181V76Z" fill="#0A95F8"/>
<path d="M52.5906 76H47.3633V81.2273H52.5906V76Z" fill="#049EFD"/>
<path d="M58.864 76H53.6367V81.2273H58.864V76Z" fill="#01A2FF"/>
<path d="M65.1365 76H59.9092V81.2273H65.1365V76Z" fill="#1E7AEB"/>
<path d="M71.4089 76H66.1816V81.2273H71.4089V76Z" fill="#049DFC"/>
<path d="M77.6814 76H72.4541V81.2273H77.6814V76Z" fill="#0997F9"/>
<path d="M83.9548 76H78.7275V81.2273H83.9548V76Z" fill="#2276E9"/>
<path d="M90.2273 76H85V81.2273H90.2273V76Z" fill="#1D7DEC"/>
<path d="M96.4997 76H91.2725V81.2273H96.4997V76Z" fill="#069AFB"/>
<path d="M102.772 76H97.5449V81.2273H102.772V76Z" fill="#2473E7"/>
<path d="M109.046 76H103.818V81.2273H109.046V76Z" fill="#0997F9"/>
<path d="M115.318 76H110.091V81.2273H115.318V76Z" fill="#0E90F6"/>
<path d="M121.591 76H116.363V81.2273H121.591V76Z" fill="#0D92F7"/>
<path d="M127.864 76H122.637V81.2273H127.864V76Z" fill="#059CFC"/>
<path d="M134.136 76H128.909V81.2273H134.136V76Z" fill="#0F8FF5"/>
<path d="M140.409 76H135.182V81.2273H140.409V76Z" fill="#1B7FEE"/>
<path d="M146.681 76H141.454V81.2273H146.681V76Z" fill="#2176E9"/>
<path d="M152.955 76H147.728V81.2273H152.955V76Z" fill="#079AFB"/>
<path d="M159.227 76H154V81.2273H159.227V76Z" fill="#1E7AEB"/>
<path d="M165.5 76H160.272V81.2273H165.5V76Z" fill="#1F7AEB"/>
<path d="M171.772 76H166.545V81.2273H171.772V76Z" fill="#069BFB"/>
<path d="M178.046 76H172.818V81.2273H178.046V76Z" fill="#02A0FE"/>
<path d="M184.318 76H179.091V81.2273H184.318V76Z" fill="#1586F1"/>
<path d="M190.591 76H185.363V81.2273H190.591V76Z" fill="#00A3FF"/>
<path d="M196.864 76H191.637V81.2273H196.864V76Z" fill="#0B94F8"/>
<path d="M203.136 76H197.909V81.2273H203.136V76Z" fill="#2177EA"/>
<path d="M21.2273 82H16V87.2273H21.2273V82Z" fill="#1D7DEC"/>
<path d="M27.5 82H22.2727V87.2273H27.5V82Z" fill="#059DFC"/>
<path d="M33.7727 82H28.5454V87.2273H33.7727V82Z" fill="#1E7AEB"/>
<path d="M40.0456 82H34.8184V87.2273H40.0456V82Z" fill="#0898FA"/>
<path d="M46.3181 82H41.0908V87.2273H46.3181V82Z" fill="#2176E9"/>
<path d="M52.5906 82H47.3633V87.2273H52.5906V82Z" fill="#1B7EED"/>
<path d="M58.864 82H53.6367V87.2273H58.864V82Z" fill="#2177EA"/>
<path d="M65.1365 82H59.9092V87.2273H65.1365V82Z" fill="#0B94F8"/>
<path d="M71.4089 82H66.1816V87.2273H71.4089V82Z" fill="#0C93F7"/>
<path d="M77.6814 82H72.4541V87.2273H77.6814V82Z" fill="#1488F2"/>
<path d="M83.9548 82H78.7275V87.2273H83.9548V82Z" fill="#039EFD"/>
<path d="M90.2273 82H85V87.2273H90.2273V82Z" fill="#1389F2"/>
<path d="M96.4997 82H91.2725V87.2273H96.4997V82Z" fill="#0D92F7"/>
<path d="M102.772 82H97.5449V87.2273H102.772V82Z" fill="#1981EE"/>
<path d="M109.046 82H103.818V87.2273H109.046V82Z" fill="#02A0FE"/>
<path d="M115.318 82H110.091V87.2273H115.318V82Z" fill="#00A3FF"/>
<path d="M121.591 82H116.363V87.2273H121.591V82Z" fill="#069AFB"/>
<path d="M127.864 82H122.637V87.2273H127.864V82Z" fill="#059DFC"/>
<path d="M134.136 82H128.909V87.2273H134.136V82Z" fill="#1F79EB"/>
<path d="M140.409 82H135.182V87.2273H140.409V82Z" fill="#2671E6"/>
<path d="M146.681 82H141.454V87.2273H146.681V82Z" fill="#01A2FF"/>
<path d="M152.955 82H147.728V87.2273H152.955V82Z" fill="#2572E7"/>
<path d="M159.227 82H154V87.2273H159.227V82Z" fill="#138AF3"/>
<path d="M165.5 82H160.272V87.2273H165.5V82Z" fill="#108DF4"/>
<path d="M171.772 82H166.545V87.2273H171.772V82Z" fill="#2177E9"/>
<path d="M178.046 82H172.818V87.2273H178.046V82Z" fill="#0D92F7"/>
<path d="M184.318 82H179.091V87.2273H184.318V82Z" fill="#0898FA"/>
<path d="M190.591 82H185.363V87.2273H190.591V82Z" fill="#01A1FE"/>
<path d="M196.864 82H191.637V87.2273H196.864V82Z" fill="#1784F0"/>
<path d="M203.136 82H197.909V87.2273H203.136V82Z" fill="#1883F0"/>
</g>
<defs>
<clipPath id="clip0_31_1395">
<rect width="187" height="187" fill="white" transform="translate(16 16)"/>
</clipPath>
</defs>
</svg>
